<?xml version="1.0" standalone="no"?>
<!DOCTYPE svg PUBLIC "-//W3C//DTD SVG 1.1//EN" "http://www.w3.org/Graphics/SVG/1.1/DTD/svg11.dtd" >
<!--
2013-9-30: Created.
-->
<svg>
<metadata>
Created by iconfont
</metadata>
<defs>

<font id="iconfont" horiz-adv-x="1024" >
  <font-face
    font-family="iconfont"
    font-weight="500"
    font-stretch="normal"
    units-per-em="1024"
    ascent="896"
    descent="-128"
  />
    <missing-glyph />
    
    <glyph glyph-name="x" unicode="x" horiz-adv-x="1001"
d="M281 543q-27 -1 -53 -1h-83q-18 0 -36.5 -6t-32.5 -18.5t-23 -32t-9 -45.5v-76h912v41q0 16 -0.5 30t-0.5 18q0 13 -5 29t-17 29.5t-31.5 22.5t-49.5 9h-133v-97h-438v97zM955 310v-52q0 -23 0.5 -52t0.5 -58t-10.5 -47.5t-26 -30t-33 -16t-31.5 -4.5q-14 -1 -29.5 -0.5
t-29.5 0.5h-32l-45 128h-439l-44 -128h-29h-34q-20 0 -45 1q-25 0 -41 9.5t-25.5 23t-13.5 29.5t-4 30v167h911zM163 247q-12 0 -21 -8.5t-9 -21.5t9 -21.5t21 -8.5q13 0 22 8.5t9 21.5t-9 21.5t-22 8.5zM316 123q-8 -26 -14 -48q-5 -19 -10.5 -37t-7.5 -25t-3 -15t1 -14.5
t9.5 -10.5t21.5 -4h37h67h81h80h64h36q23 0 34 12t2 38q-5 13 -9.5 30.5t-9.5 34.5q-5 19 -11 39h-368zM336 498v228q0 11 2.5 23t10 21.5t20.5 15.5t34 6h188q31 0 51.5 -14.5t20.5 -52.5v-227h-327z" />
    

    
    <glyph glyph-name="xing" unicode="&#58880;" d="M516.7404 632.5965c44.5497-77.9312 97.8827-173.1206 98.5143-174.2449 11.011-19.6577 30.1588-33.4253 52.2917-37.6035 0 0 94.4849-17.762 177.0844-33.0346-59.0335-66.6428-129.6555-143.4497-130.527-144.3971-15.3582-16.7017-22.4697-39.3673-19.3867-61.8511 0.1479-1.0743 12.0144-87.9893 21.6712-167.0068-63.1928 30.5983-134.3186 65.3437-161.3554 78.5537l-4.5881 2.2465c-10.5283 5.1295-21.951 7.7108-33.3698 7.7108-11.1619 0-22.3218-2.4533-32.6632-7.374l-1.4491-0.6905c-22.9914-10.9406-100.633-47.8765-168.3759-80.0557 9.8437 79.3902 21.8401 166.2083 21.989 167.2676 3.139 22.6876-4.0854 45.5941-19.7045 62.3347-0.8904 0.9474-71.9033 77.1977-131.5313 143.5986 83.6028 15.2736 179.294 33.0346 179.294 33.0346 22.061 4.0852 41.2078 17.723 52.2748 37.2497C417.5584 459.4549 471.6131 554.7313 516.7404 632.5965M517.0372 754.224c-7.6142 0-22.8774-5.879-42.7848-43.4375-47.8905-81.6367-123.4895-214.8863-123.4895-214.8863s-138.2751-25.6586-227.4643-41.7847c-43.7342-6.8743-58.0131-44.1261-35.8232-70.3233 62.7671-72.1411 173.7615-191.2353 173.7615-191.2353s-18.1255-130.8333-28.319-220.1447c-3.3249-34.2957 15.5981-53.9354 41.9843-53.9354 8.6165 0 18.0345 2.0996 27.7254 6.4646 74.8404 35.5039 188.672 89.6632 214.4476 101.9239 25.3289-12.3706 138.0482-67.4763 212.0891-103.0561 9.5809-4.384 18.902-6.4846 27.4276-6.4846 26.0724 0 44.7725 19.6557 41.4856 54.0094-10.0856 89.4414-28.0052 220.4415-28.0052 220.4415S879.7855 311.0385 941.828 383.2925c21.9301 26.2162 7.818 63.5209-35.4125 70.4143-88.1549 16.1451-224.811 41.8396-224.811 41.8396S606.879 628.982 559.5611 710.7305c-16.7294 30.1725-29.5252 39.871-37.6401 42.5262C521.1605 753.6135 519.4886 754.224 517.0372 754.224L517.0372 754.224z"  horiz-adv-x="1000" />

    
    <glyph glyph-name="daohang" unicode="&#58890;" d="M559.446001-78.871069c-1.332399 0-2.662752 0.084934-4.021758 0.282433-12.770361 1.784646-22.823733 11.835559-24.608452 24.635073l-56.265727 401.479861L73.720976 403.888979c-12.800038 1.783623-22.823733 11.836583-24.607429 24.635073-1.81235 12.798491 5.096274 25.200962 16.877057 30.453592l866.448392 385.352555c10.931405 4.799306 23.702789 2.478448 32.168948-5.988388 8.468206-8.452509 10.817813-21.252023 5.976353-32.209586L585.837126-61.681572C581.135864-72.230835 570.744788-78.871069 559.446001-78.871069zM181.693413 447.142086 504.142221 401.794271c12.799015-1.784646 22.823733-11.836583 24.607429-24.635073l45.279061-322.945203L887.357441 760.954281 181.693413 447.142086z"  horiz-adv-x="1024" />

    
    <glyph glyph-name="fenxiang" unicode="&#58933;" d="M771.378445 466.536944c-36.931121 0-69.476351 17.442254-90.941222 44.158732L458.317357 399.310843c5.084808-15.824407 8.563026-32.374338 8.563026-49.891294 0-22.651906-4.600785-44.23548-12.910031-63.866586l230.340085-139.557476c21.452591 24.035416 52.322669 39.45971 87.068008 39.45971 64.688301 0 117.121488-52.436256 117.121488-117.115348 0-64.681138-52.433186-117.116371-117.121488-117.116371-64.680115 0-117.112278 52.436256-117.112278 117.116371 0 13.053294 2.631944 25.382087 6.569626 37.10099L429.074336 245.865055c-30.075992-36.58115-75.105558-60.409858-126.162398-60.409858-90.554412 0-163.960259 73.40994-163.960259 163.964352 0 90.558505 73.404824 163.964352 163.960259 163.964352 56.308447 0 105.930611-28.428469 135.454018-71.668273l220.667795 110.653169c-2.793626 10.022261-4.767584 20.37505-4.767584 31.28861 0 64.680115 52.433186 117.117394 117.112278 117.117394 64.684208 0 117.116371-52.43728 117.116371-117.117394C888.494817 518.974223 836.066747 466.536944 771.378445 466.536944L771.378445 466.536944zM771.378445 0.621539c37.405935 0 67.726497 30.317493 67.726497 67.719334 0 37.400818-30.320563 67.718311-67.726497 67.718311-37.397748 0-67.718311-30.317493-67.718311-67.718311C703.660134 30.939031 733.980697 0.621539 771.378445 0.621539L771.378445 0.621539zM302.911938 461.935136c-62.134129 0-112.515586-50.375318-112.515586-112.515586 0-62.142316 50.380434-112.514563 112.515586-112.514563 62.142316 0 112.51968 50.372248 112.51968 112.514563C415.431617 411.559818 365.054253 461.935136 302.911938 461.935136L302.911938 461.935136zM771.378445 652.009146c-37.749766 0-68.355831-30.602995-68.355831-68.355831 0-37.753859 30.606065-68.359924 68.355831-68.359924 37.757952 0 68.364017 30.606065 68.364017 68.359924C839.742463 621.403081 809.136398 652.009146 771.378445 652.009146L771.378445 652.009146z"  horiz-adv-x="1024" />

    
    <glyph glyph-name="xiangji" unicode="&#59318;" d="M511.765663 808.225023c-280.277428 0-508.296655-228.018204-508.296655-508.296655s228.019227-508.296655 508.296655-508.296655 508.296655 228.019227 508.296655 508.296655S792.044114 808.225023 511.765663 808.225023zM511.765663-167.704145c-257.851673 0-467.632513 209.771631-467.632513 467.632513S253.915014 767.560882 511.765663 767.560882s467.632513-209.771631 467.632513-467.632513S769.617335-167.704145 511.765663-167.704145zM506.877329 374.05667c-54.68446 0-99.013061-45.460378-99.013061-101.558024 0-56.096622 44.329625-101.558024 99.013061-101.558024 54.68139 0 99.011015 45.48903 99.011015 101.558024C605.888344 328.597315 561.558719 374.05667 506.877329 374.05667zM734.181265 451.825894l-87.425142 0 0 17.939581c0 29.723975-23.499204 53.818743-52.455699 53.818743L419.451164 523.584218c-28.956495 0-52.455699-24.094768-52.455699-53.818743l0-17.939581-87.425142 0c-28.956495 0-52.455699-24.058952-52.455699-53.78395l0-286.964734c0-29.689183 23.499204-53.78395 52.455699-53.78395l454.609918 0c28.956495 0 52.455699 24.094768 52.455699 53.818743L786.635941 398.041944C786.635941 427.73215 763.137761 451.825894 734.181265 451.825894zM737.958288 382.550111l0-251.189949c0-13.847379-11.086499-25.107841-24.759917-25.107841L300.518425 106.252321c-13.673417 0-24.759917 11.224646-24.759917 25.107841L275.758508 382.550111c0 13.848403 11.086499 25.108864 24.759917 25.108864l107.323331 0 0 41.85834c0 13.848403 11.084453 25.108864 24.759917 25.108864l148.58713 0c13.672394 0 24.756847-11.225669 24.756847-25.108864l0-41.85834 107.288538 0c13.675464 0 24.759917-11.225669 24.759917-25.108864L737.958288 382.550111z"  horiz-adv-x="1024" />

    
    <glyph glyph-name="xiangce" unicode="&#59319;" d="M511.672542 807.906775c-279.305287 0-506.532475-227.227188-506.532475-506.532475s227.227188-506.532475 506.532475-506.532475 506.532475 227.227188 506.532475 506.532475S790.976806 807.906775 511.672542 807.906775zM511.672542-164.635249c-256.966513 0-466.00955 209.043037-466.00955 466.00955S254.706029 767.38385 511.672542 767.38385s466.00955-209.043037 466.00955-466.00955S768.638031-164.635249 511.672542-164.635249zM706.60828 544.509806 309.058938 544.509806c-55.857169 0-101.30629-45.449121-101.30629-101.30629l0-281.738709c0-55.857169 45.449121-101.30629 101.30629-101.30629l397.548318 0c55.857169 0 101.30629 45.449121 101.30629 101.30629L807.913547 443.203516C807.91457 499.060685 762.465448 544.509806 706.60828 544.509806zM706.60828 100.680419 309.058938 100.680419c-28.768207 0-52.803623 20.138666-59.07342 47.025013 5.568832 0.119727 11.07422 2.442632 14.969946 7.011694 18.184151 21.211091 75.228355 76.296687 120.459512 76.296687 41.333384 0 75.228355-36.82265 105.125269-69.311599l2.908236-3.166109c7.617491-8.231475 20.420075-8.745175 28.631084-1.167592 8.231475 7.578606 8.745175 20.399609 1.167592 28.631084l-2.888793 3.145643c-33.775244 36.703947-75.821873 82.390475-134.943388 82.390475-55.31891 0-111.579261-49.556673-137.139403-75.366502L248.275573 443.203516c0 33.518395 27.265994 60.784388 60.784388 60.784388l397.548318 0c33.518395 0 60.783365-27.265994 60.783365-60.784388l0-139.115408c-33.473369 36.205597-74.416873 73.306586-128.730896 73.306586-78.630848 0-159.221328-96.16213-162.604378-100.257401-7.142677-8.607028-5.955642-21.389146 2.670829-28.512381 3.77907-3.145643 8.350179-4.669346 12.900821-4.669346 5.836939 0 11.614525 2.492774 15.611559 7.341199 19.74674 23.803125 81.796958 85.576027 131.421168 85.576027 45.291532 0 82.21242-41.313941 114.781186-77.780481l3.1262-3.482311c2.950192-3.296069 6.808056-5.043876 10.82351-5.92392l0-88.220251C767.391644 127.946412 740.125651 100.680419 706.60828 100.680419zM380.795772 444.04058c-30.879288 0-56.003502-25.125237-56.003502-56.005548 0-30.881334 25.124214-56.005548 56.003502-56.005548 30.881334 0 56.005548 25.124214 56.005548 56.005548C436.801321 418.91739 411.67813 444.04058 380.795772 444.04058z"  horiz-adv-x="1024" />

    
    <glyph glyph-name="jia" unicode="&#59146;" d="M830.15306 329.753651 543.132044 329.753651 543.132044 616.774667 481.733673 616.774667 481.733673 329.753651 194.711634 329.753651 194.711634 268.354256 481.733673 268.354256 481.733673-18.665737 543.132044-18.665737 543.132044 268.354256 830.15306 268.354256Z"  horiz-adv-x="1024" />

    
    <glyph glyph-name="wode" unicode="&#58944;" d="M693.90598 382.732124c35.547611 41.708937 57.016575 95.78453 57.016575 154.881486 0 131.952264-106.969267 238.925624-238.923578 238.925624S273.074376 669.566898 273.074376 537.614633c0-59.096956 21.467941-113.172549 57.016575-154.881486-95.779414-60.448744-159.411663-167.202093-159.411663-288.831244l0-34.132378c0-37.705763 30.562063-68.263733 68.263733-68.263733l546.111912 0c37.700647 0 68.263733 30.55797 68.263733 68.263733l0 34.132378C853.318666 215.530031 789.685393 322.28338 693.90598 382.732124zM324.272431 537.614633c0 103.681384 84.048231 187.730639 187.725522 187.730639s187.725522-84.050278 187.725522-187.730639c0-103.674221-84.048231-187.724499-187.725522-187.724499S324.272431 433.940412 324.272431 537.614633zM802.12061 76.832132c0-18.84623-15.281031-34.132378-34.132378-34.132378L256.008698 42.699754c-18.851347 0-34.132378 15.286148-34.132378 34.132378l0 34.132378c0 103.186104 57.241702 192.992479 141.696186 239.427044 40.764426-32.360012 92.334965-51.696406 148.425448-51.696406 56.091506 0 107.661022 19.336394 148.425448 51.696406 84.454484-46.434565 141.696186-136.241964 141.696186-239.427044L802.119587 76.832132z"  horiz-adv-x="1024" />

    
    <glyph glyph-name="jianli1" unicode="&#59049;" d="M511.705799 831.978894c-247.270686 0-447.724091-200.453405-447.724091-447.724091s200.453405-447.724091 447.724091-447.724091c247.27171 0 447.724091 200.453405 447.724091 447.724091S758.976486 831.978894 511.705799 831.978894zM605.671914 608.77637c0 11.58178 9.074679 20.97573 20.272719 20.97573 11.192923 0 20.268626-9.390881 20.268626-20.97573l0-56.425104c0-11.583826-9.076726-20.97573-20.268626-20.97573-11.197016 0-20.272719 9.390881-20.272719 20.97573L605.671914 608.77637zM490.751558 608.77637c0 11.58178 9.074679 20.97573 20.266579 20.97573 11.197016 0 20.272719-9.390881 20.272719-20.97573l0-56.425104c0-11.583826-9.074679-20.97573-20.272719-20.97573-11.192923 0-20.266579 9.390881-20.266579 20.97573L490.751558 608.77637zM375.188566 608.77637c0 11.58178 9.075703 20.97573 20.269649 20.97573 11.195993 0 20.271696-9.390881 20.271696-20.97573l0-56.425104c0-11.583826-9.075703-20.97573-20.271696-20.97573-11.193947 0-20.269649 9.390881-20.269649 20.97573L375.188566 608.77637zM730.789517 562.660052l0-402.867464c0-26.814716-22.069645-24.527626-22.069645-24.527626L314.151421 135.264962c-25.540699 0-22.905686 23.89113-22.905686 23.89113L291.245735 562.660052c0 28.093848 22.905686 22.181185 22.905686 22.181185s18.512632 0.165776 41.49916 0c-3.193739-79.334883 31.92306-75.810616 39.806611-75.810616 58.325383 1.914606 48.940642 75.810616 48.940642 75.810616s4.467755 0.165776 22.980387 0c-1.914606-81.250512 35.756365-74.535577 43.639916-74.535577 53.214992 8.939603 43.831274 75.506694 43.831274 75.506694s12.130272 0.470721 22.985504 0c3.830235-74.535577 37.030381-76.146261 48.109718-76.146261 46.829562 3.194762 39.36045 75.837222 39.36045 75.837222s17.873066 0.779759 44.051285-0.144286C734.256478 587.626677 730.789517 562.660052 730.789517 562.660052zM676.156222 434.095955c0 11.060917-8.658194 20.024056-19.338441 20.024056L366.691031 454.120011c-10.680247 0-19.340487-8.963139-19.340487-20.024056l0-4.002151c0-11.059893 8.661264-20.026102 19.340487-20.026102l290.12675 0c10.68127 0 19.338441 8.966209 19.338441 20.026102L676.156222 434.095955 676.156222 434.095955 676.156222 434.095955zM674.880159 335.136106c0 11.057847-8.66024 20.025079-19.340487 20.025079L365.412922 355.161185c-10.68127 0-19.340487-8.965186-19.340487-20.025079l0-4.00522c0-11.05887 8.659217-20.023032 19.340487-20.023032l290.12675 0c10.68127 0 19.340487 8.965186 19.340487 20.023032L674.880159 335.136106 674.880159 335.136106 674.880159 335.136106zM674.880159 236.175233c0 11.060917-8.66024 20.022009-19.340487 20.022009L365.412922 256.197242c-10.68127 0-19.340487-8.962116-19.340487-20.022009l0-4.00522c0-11.057847 8.659217-20.023032 19.340487-20.023032l290.12675 0c10.68127 0 19.340487 8.966209 19.340487 20.023032L674.880159 236.175233 674.880159 236.175233 674.880159 236.175233z"  horiz-adv-x="1024" />

    
    <glyph glyph-name="bao-copy" unicode="&#58909;" d="M849.106 690.265h-168.661v55.688c0 30.765-25.159 55.686-56.221 55.686h-224.882c-31.062 0-56.221-24.921-56.221-55.686v-55.688h-168.661c-62.095 0-112.441-49.866-112.441-111.368v-501.166c0-61.505 50.346-111.37 112.441-111.37h674.646c62.095 0 112.441 49.866 112.441 111.37v501.166c0 61.503-50.346 111.368-112.441 111.368zM399.342 718.11c0 15.368 12.593 27.844 28.11 27.844h168.662c15.517 0 28.11-12.474 28.11-27.844v-27.844h-224.882v27.844zM905.326 77.733c0-30.767-25.159-55.688-56.221-55.688h-674.646c-31.062 0-56.221 24.921-56.221 55.688v306.267h285.067c-2.332-8.966-3.964-18.18-3.964-27.844 0-61.503 50.346-111.368 112.441-111.368 62.095 0 112.441 49.866 112.441 111.368 0 9.663-1.63 18.877-3.964 27.844h285.067v-306.267zM455.562 356.156c0 10.19 2.979 19.628 7.786 27.844h96.868c4.808-8.216 7.787-17.653 7.787-27.844 0-30.765-25.159-55.685-56.221-55.685-31.061-0.001-56.22 24.92-56.22 55.685zM905.326 439.683h-787.087v139.215c0 30.765 25.159 55.685 56.221 55.685h674.646c31.062 0 56.221-24.921 56.221-55.685v-139.215z"  horiz-adv-x="1024" />

    
    <glyph glyph-name="mima" unicode="&#58942;" d="M1045.94582869 486.399523L415.45890469 486.399523 415.45890469 618.474056c0 125.195237 101.49159 226.684419 226.686827 226.684419l56.668395 0c125.195237 0 226.686827-101.490386 226.686827-226.684419l0-15.671982 0.006021 0c0.134865-14.294437 11.758502-25.84101 26.084248-25.84101 14.325745 0 25.949383 11.546572 26.084248 25.84101l0.006021 0 0 20.13335c0 150.809868-122.258321 273.064576-273.068189 273.064576l-68.265542 0c-150.812276 0-273.068189-122.254709-273.068189-273.064576l0-136.535901-68.26795 0c-75.406138 0-136.531084-61.127354-136.531084-136.532288l0-341.333731c0-75.404934 61.124946-136.533492 136.531084-136.533492l750.934208 0c75.406138 0 136.533492 61.128559 136.533492 136.533492L1182.47932169 349.86723500000005C1182.48052569 425.272169 1121.35196669 486.399523 1045.94582869 486.399523zM1126.67309569 39.17785900000001c0-67.186626-42.424532-109.611158-109.611158-109.611158l-693.167629 0c-67.186626 0-109.611158 42.424532-109.611158 109.611158L214.28315069 319.22408399999995c0 67.186626 42.424532 109.611158 109.611158 109.611158l693.167629 0c67.186626 0 109.611158-42.424532 109.611158-109.611158L1126.67309569 39.17785900000001zM670.48053169 340.373734c-38.576076 0-69.848996-31.27292-69.848996-69.848996 0-27.880836 16.340284-51.938503 39.963254-63.140689l0-159.471302c0-16.506457 13.380489-29.886946 29.886946-29.886946 16.506457 0 29.886946 13.380489 29.886946 29.886946L700.36868169 207.384049c23.62297 11.200982 39.963254 35.258649 39.963254 63.140689C740.32952769 309.100814 709.05660769 340.373734 670.48053169 340.373734z"  horiz-adv-x="1332" />

    
    <glyph glyph-name="kefu" unicode="&#58945;" d="M119.653495 414.727758c0 215.439515 172.192323 390.096162 392.344566 390.096162 220.156121 0 398.615273-174.656646 398.615273-390.096162 0-183.283071-126.394182-337.000727-300.474182-378.838626l-120.282505-52.803232L489.856646 25.625859C282.967273 39.889455 119.653495 208.630949 119.653495 414.727758L119.653495 414.727758zM69.093495 414.727758c0-219.227798 166.287515-400.429253 382.156283-429.40897-3.373253-21.162667-10.378343-67.258182-7.535192-67.258182 2.464323 0 118.838303 48.919273 196.217535 81.570909 182.242263 53.696646 314.974384 219.227798 314.974384 415.096242C954.906505 654.105859 756.613818 848.161616 512.001939 848.161616 267.386182 848.161616 69.093495 654.105859 69.093495 414.727758L69.093495 414.727758zM334.835717 272.060768c23.722667-42.909737 92.918949-77.681778 176.248242-77.681778 82.382869 0 153.585778 34.040242 178.080323 76.211717-13.141333 6.182788-19.727515 8.303192-29.101253 12.626747-20.575677-32.328404-78.015354-61.712808-147.630545-61.712808-69.268687 0-127.056162 29.384404-148.530424 63.182869L334.835717 272.060768 334.835717 272.060768zM334.835717 272.060768"  horiz-adv-x="1024" />

    
    <glyph glyph-name="icon-auth" unicode="&#58888;" d="M761.61060999 604.62149401c-9.413135 0-18.204364-3.62678401-24.84508199-10.26247101L459.729123 317.138461 327.677545 449.261487c-6.641725 6.641725-15.432953 10.268509-24.845082 10.268509-9.34068 0-18.132915-3.62678401-24.77464-10.268509-6.641725-6.642731-10.268509-15.432953-10.26850901-24.77464 0-9.345712 3.62678401-18.13694 10.26850901-24.77866501l156.898673-157.02043799c6.641725-6.580339 15.432953-10.268509 24.77363402-10.268509 9.35174999 0 18.14297801 3.68816999 24.84508198 10.268509l301.809033 302.054575c6.642731 6.57631401 10.268509 15.366536 10.26850902 24.77464 0 9.34671799-3.62678401 18.259712-10.26850902 24.841057C779.742519 600.9947100100001 770.951291 604.62149401 761.61060999 604.62149401zM773.10079401 801.42083201l-2.02773901-2e-8c-109.742427 0-201.841011 12.48342399-259.26475999 78.14291101-57.366389-65.65948799-149.89266-78.142911-260.06378001-78.14291101C76.277191 801.42083201 71.46797801 625.957532 71.46797801 625.957532c0-98.06305399-0.06138599-191.573508-0.06138601-394.215551 0-113.735512 272.008821-321.109281 420.604332-356.400992 12.72695399-3.008903 25.705488-3.008903 38.42942201-0.061386 149.70649001 35.048181 421.44964201 241.31096999 421.44964199 356.401998L951.889989 625.8961459899999C951.889989 753.77652 889.485952 801.42083201 773.10079401 801.42083201zM888.93549399 231.681601c0-65.293187-215.61554599-247.458591-353.32969699-289.998838-15.800261-4.859529-32.894652-4.859529-48.63553901 0C349.13132201-15.594844999999964 134.362093 166.57760299999995 134.362093 231.74097400999995l-0.906696 267.93522999 0.906696 124.24855799c0.366301 11.684404 6.10132999 114.54056999 117.38342901 114.54057001 92.832193 0 186.958516 7.930823 260.06378 57.6069 73.039853-49.676076 167.16617601-57.6069 261.291492-57.6069 88.778728 0 115.8347-26.3123 115.8347-112.569185L888.93549399 231.681601z"  horiz-adv-x="1024" />

    
    <glyph glyph-name="fankui" unicode="&#59153;" d="M285.435 466.015c-22.621 0-41.215 18.535-41.215 41.215s18.535 41.215 41.215 41.215h267.778c22.621 0 41.215-18.535 41.215-41.215s-18.594-41.215-41.215-41.215h-267.778zM285.435 301.273c-22.621 0-41.215 18.535-41.215 41.215 0 22.621 18.535 41.156 41.215 41.156h494.345c22.681 0 41.215-18.535 41.215-41.156 0-22.681-18.535-41.215-41.215-41.215h-494.345zM38.263 414.556c0-99.366 38.55-186.831 102.979-254.692v-188.133c0-30.26 20.134-62.297 82.371-20.667 1.954 1.244 84.858 53.769 131.521 83.259 49.149-13.916 101.914-21.436 156.866-21.436 261.68 0 473.737 168.473 473.737 401.61 0 233.197-212.056 422.277-473.737 422.277-261.621 0-473.737-189.021-473.737-422.218z"  horiz-adv-x="1024" />

    
    <glyph glyph-name="wenda" unicode="&#58930;" d="M512 896C229.229714 896 0 666.770286 0 384 0 101.229714 229.229714-128 512-128 794.770286-128 1024 101.229714 1024 384 1024 666.770286 794.770286 896 512 896ZM536.941714 73.362286C536.941714 59.245714 525.531429 47.835429 511.414857 47.835429L434.468571 47.835429C420.352 47.835429 408.941714 59.245714 408.941714 73.362286L408.941714 150.308571C408.941714 164.425143 420.352 175.835429 434.468571 175.835429L511.414857 175.835429C525.531429 175.835429 536.941714 164.425143 536.941714 150.308571L536.941714 73.362286ZM687.469714 441.197714C677.229714 426.569143 653.897143 407.990857 624.786286 385.243429L592.457143 362.934857C576.804571 350.793143 562.907429 336.603429 557.714286 320.438857 555.958857 314.88 554.642286 304.566857 553.764571 294.692571 553.325714 289.792 548.937143 278.454857 538.624 278.454857L455.533714 278.454857C442.075429 278.454857 439.661714 290.304 439.881143 295.497143 441.344 329.362286 444.489143 360.082286 458.24 376.32 486.253714 409.088 549.888 450.267429 549.888 450.267429 559.542857 457.508571 567.369143 465.627429 573.366857 474.331429 584.118857 489.179429 593.042286 505.563429 593.042286 523.483429 593.042286 543.963429 587.044571 562.688 575.049143 579.657143 563.053714 596.48 541.037714 604.964571 509.220571 604.964571 477.915429 604.964571 455.68 594.578286 442.587429 573.732571 432.932571 558.372571 426.788571 523.483429 424.301714 508.123429 423.424 502.710857 419.913143 470.454857 408.283429 470.454857L327.314286 470.454857C310.052571 470.454857 306.249143 502.418286 306.761143 507.830857 312.978286 575.707429 339.529143 632.466286 386.413714 662.308571 418.304 682.788571 457.581714 698.294857 504.173714 698.294857 565.321143 698.294857 616.155429 686.299429 656.603429 657.115429 697.051429 627.931429 717.312 586.020571 717.312 528.676571 717.312 493.568 704.950857 465.261714 687.469714 441.197714Z"  horiz-adv-x="1024" />

    
    <glyph glyph-name="shouji" unicode="&#58908;" d="M783.03042333 893.07287552L240.96026169 893.07287552c-37.42859264 0-67.75615033-30.32872163-67.75615033-67.75615033l0-880.87070834c0-37.41927879 30.32872163-67.75615033 67.75615033-67.75615032L783.03042333-123.31013346999998c37.41927879 0 67.76546531 30.33687154 67.76546531 67.75615032l0 880.87070834C850.79588864 862.74415389 820.44970211 893.07287552 783.03042333 893.07287552zM783.03042333-55.55398201000003L240.96026169-55.55398201000003 240.96026169 147.72378397 783.03042333 147.72378397 783.03042333-55.55398201000003zM783.03042333 215.48109824000005L240.96026169 215.48109824000005 240.96026169 825.31556125 783.03042333 825.31556125 783.03042333 215.48109824000005zM478.11668537 12.202168320000055l67.75615033 0c18.71371491 0 33.87865771 15.17309269 33.87865771 33.88680761 0 18.70556387-15.16377885 33.86934272-33.87865771 33.86934272l-67.75615033 0c-18.71371491 0-33.87865771-15.16377885-33.87865771-33.86934272C444.23919275 27.37526101000003 459.40297045 12.202168320000055 478.11668537 12.202168320000055z"  horiz-adv-x="1024" />

    
    <glyph glyph-name="icon" unicode="&#58953;" d="M624.865 383.753l-292.155 292.159c-12.28 12.27-12.28 32.186 0 44.457 12.27 12.28 32.186 12.28 44.457 0l314.388-314.388c12.28-12.27 12.28-32.186 0-44.457l-314.388-314.387c-6.136-6.14-14.183-9.211-22.228-9.211s-16.092 3.071-22.228 9.211c-12.28 12.27-12.28 32.186 0 44.457l292.155 292.16z"  horiz-adv-x="1024" />

    
    <glyph glyph-name="xiaoxi1" unicode="&#58892;" d="M874.4 766.8C777.2 849.6 648.8 895.6 512 895.6 229.6 895.6 0 699.2 0 458c0-132.4 72-257.2 197.2-342 13.6-9.2 32.8-5.2 42 8 4.4 6.8 6.4 14.8 4.8 22.8-1.6 8-6 14.8-12.8 19.2-108.4 73.6-170.8 180-170.8 292 0 208 202.4 376.8 451.6 376.8s451.6-169.2 451.6-376.8-202.4-376.8-451.6-376.8c-0.4 0-1.2-0.4-2.4-0.4-0.8-0.4-2-0.4-2.8-0.8l-1.2-0.4-1.2 0.4c-14.8 2.8-28.8-5.6-34-18.8-10-28.8-81.6-71.6-112-88.8l-14.8-8.4 4.8 16.4c19.2 64.4 10.4 77.6 4.8 85.6-6.4 9.6-17.2 15.6-29.2 15.6-16.8 0-30.4-13.6-30.4-30.4 0-5.2 1.2-10.4 4-15.2l1.2-2-0.4-2.4c-4-22-20.4-72.4-38.8-116.8-4.8-11.6-2-24.4 6.8-33.2 8.8-8.4 22-10.8 33.2-6 38.8 17.2 168.8 78.4 214.4 143.2l2 2.8 3.6 0c277.6 4 503.2 200 503.2 437.2C1024 574.4 970.8 684 874.4 766.8zM779.2 461.2c0 36.8-30 66.8-66.8 66.8-36.8 0-66.8-30-66.8-66.8 0-36.8 30-66.8 66.8-66.8C749.6 394.8 779.2 424.8 779.2 461.2zM313.2 394.8c36.8 0 66.8 30 66.8 66.8 0 36.8-30 66.8-66.8 66.8-36.8 0-66.8-30-66.8-66.8C246.4 424.8 276.4 394.8 313.2 394.8zM512.8 394.8c36.8 0 66.8 30 66.8 66.8 0 36.8-30 66.8-66.8 66.8-36.8 0-66.8-30-66.8-66.8C446.4 424.8 476.4 394.8 512.8 394.8z"  horiz-adv-x="1024" />

    
    <glyph glyph-name="men" unicode="&#58887;" d="M744.887 238.882c-11.651 0-22.267 7.898-25.115 19.807-25.632 104.988-76.766 233.017-101.362 294.508-3.754 9.191-6.861 17.218-9.321 23.559-5.178 13.333 1.295 28.35 14.628 33.53 13.333 5.178 28.35-1.295 33.53-14.628 2.46-6.213 5.567-14.111 9.191-23.301 24.985-62.656 77.025-192.886 103.563-301.499 3.365-13.852-5.178-27.962-19.029-31.328-1.942-0.388-4.013-0.647-6.083-0.647zM473.81-105.983c-36.895 0-100.197 45.826-118.709 59.807-30.681 23.301-84.144 68.74-98.385 112.366-2.46 7.508-5.825 17.734 13.333 110.425 10.356 50.357 25.632 116.121 42.85 185.119 17.218 68.74 34.435 133.338 48.804 181.883 7.767 26.279 14.369 47.251 19.807 62.527 8.673 24.337 13.852 33.53 22.137 39.095 4.272 2.977 9.451 4.53 14.628 4.53h111.071c5.178 0 10.227-1.553 14.499-4.402 8.156-5.438 13.074-14.239 21.748-39.095 5.308-15.146 11.909-36.117 19.677-62.527 14.239-48.545 31.845-113.402 49.581-182.788 17.606-69.127 33.53-135.020 44.531-185.507 20.194-92.43 17.606-100.974 15.405-108.611-11.393-38.060-71.977-88.029-97.349-107.706-25.374-19.677-88.029-65.115-123.629-65.115zM306.557 80.431c8.026-21.101 38.577-53.982 78.967-84.663 45.438-34.564 79.743-49.581 88.159-49.969 9.709 0.517 45.826 18.383 93.077 55.147 48.804 37.93 72.365 66.798 77.543 78.708-0.907 20.194-21.23 117.674-58.901 265.381-33.658 132.043-60.196 222.143-71.847 252.823h-79.873c-11.909-30.162-38.448-120.262-71.328-252.046-37.024-148.095-56.053-245.963-55.794-265.381zM473.94 594.622c-22.137 0-42.72 1.295-56.313 3.625-11.651 1.942-21.878 10.098-36.375 28.869-9.321 12.038-20.065 27.962-31.069 46.346-24.208 40.39-43.885 81.814-52.429 110.683-5.567 18.771-11.004 45.697 6.732 62.007 7.898 7.378 22.395 15.534 69.127 20.972 27.185 3.107 62.138 4.918 98.126 4.918 36.375 0 71.588-1.812 99.162-4.918 47.51-5.567 61.361-13.723 69.258-21.878 17.865-18.124 11.263-47.51 3.625-71.2-9.579-29.515-28.35-69.127-50.357-105.893-10.227-17.088-20.065-31.845-28.739-42.85-13.463-17.346-23.69-25.115-34.953-27.055-18.512-3.107-42.978-3.625-55.794-3.625zM430.832 648.733c10.874-1.423 26.539-2.201 43.108-2.201 16.441 0 31.975 0.778 42.85 2.201 8.673 8.544 29.515 38.318 50.228 78.19 21.878 41.943 30.94 70.163 32.622 82.721-16.699 5.049-61.232 10.745-127.772 10.745-65.762 0-110.035-5.696-127.252-10.745 2.331-12.946 12.169-41.036 34.435-82.463 23.559-43.626 43.885-70.812 51.781-78.449z"  horiz-adv-x="1024" />

    
    <glyph glyph-name="gantan" unicode="&#58975;" d="M512-120.47955232000004c-231.480049 0-419.146219 187.66617-419.146219 419.146219s187.66617 419.146219 419.146219 419.146219 419.146219-187.66617 419.146219-419.146219S743.480049-120.47955232000004 512-120.47955232000004L512-120.47955232000004zM512 661.92706368c-200.63146 0-363.260397-162.628938-363.260397-363.260397s162.628938-363.260397 363.260397-363.260397 363.260397 162.628938 363.260397 363.260397S712.63146 661.92706368 512 661.92706368L512 661.92706368zM512 47.178935679999995c-30.877241 0-55.885821 25.00858-55.885821 55.885821s25.00858 55.886845 55.885821 55.886845 55.885821-25.009603 55.885821-55.886845S542.877241 47.178935679999995 512 47.178935679999995L512 47.178935679999995zM512 214.83742268000003c-15.424294 0-27.943422 25.00858-27.943422 55.885821l-27.942399 251.487731c0 30.877241 25.00858 55.886845 55.885821 55.886845s55.885821-25.009603 55.885821-55.886845l-27.942399-251.487731C539.943422 239.84600267999997 527.424294 214.83742268000003 512 214.83742268000003L512 214.83742268000003z"  horiz-adv-x="1024" />

    
    <glyph glyph-name="xueli" unicode="&#59038;" d="M874.368074 399.398712c-16.758686 0-30.343075-13.58132-30.343075-30.340005l0-121.44598c0-16.758686 13.58439-30.340005 30.343075-30.340005 16.758686 0 30.343075 13.58132 30.343075 30.340005l0 121.44598C904.712173 385.817392 891.12676 399.398712 874.368074 399.398712zM935.994644 553.265078 524.317537 729.768001c-8.948813 3.89675-19.216667 3.89675-27.987425 0.059352L84.517929 553.279405c-13.008268-5.570879-21.409612-18.313088-21.409612-32.462343s8.400321-26.891464 21.394263-32.446993l122.30658-52.439326 0-249.022587c0-86.510306 130.439818-151.760402 303.431777-151.760402s303.431777 65.250096 303.431777 151.760402L813.672714 435.921533l122.30658 52.43421c13.008268 5.570879 21.409612 18.313088 21.409612 32.462343S948.988586 547.708526 935.994644 553.265078zM752.987586 186.90918c0-37.128619-94.570889-91.074252-242.745626-91.074252s-242.745626 53.94461-242.745626 91.074252L267.496333 409.91216l228.952482-98.163717c4.370541-1.852184 9.067516-2.77009 13.764492-2.77009 4.740978 0 9.497305 0.933255 13.956873 2.829442l228.818429 98.097202L752.98861 186.90918zM510.256286 371.857449 162.821319 520.817062l347.420641 148.960637L857.67795 520.817062 510.256286 371.857449z"  horiz-adv-x="1024" />

    
    <glyph glyph-name="gou" unicode="&#58932;" d="M427.008 62.7712 401.6128 62.7712 168.2432 388.3008 197.12 417.1776 412.4672 247.1936 844.6976 661.2992 878.8992 634.1632 427.008 62.7712Z"  horiz-adv-x="1024" />

    
    <glyph glyph-name="xingxingshixin" unicode="&#59162;" d="M949.16 509.44c-4.9 15-17.9 26-33.4 28.2l-257 37.3L543.76 807.84c-7 14.1-21.4 23.1-37.2 23.1s-30.2-9-37.2-23.1L354.46 574.94l-257-37.3c-15.6-2.3-28.6-13.2-33.4-28.2s-0.8-31.5 10.5-42.5l186-181.3-43.9-256c-2.7-15.6 3.7-31.3 16.5-40.5 12.8-9.3 29.7-10.5 43.6-3.1L506.66 106.84l229.9-120.9c6-3.2 12.7-4.8 19.3-4.8 8.6 0 17.2 2.7 24.4 7.9 12.8 9.3 19.1 25 16.5 40.5l-43.9 256 186 181.3C949.96 477.94 953.96 494.44 949.16 509.44z"  horiz-adv-x="1024" />

    
    <glyph glyph-name="comment" unicode="&#58896;" d="M320.129064 470.285179c-26.490328 0-47.967478-22.273283-47.967478-49.758264 0-27.486004 21.47715-49.759287 47.967478-49.759287s47.967478 22.273283 47.967478 49.759287C368.096543 448.010873 346.619392 470.285179 320.129064 470.285179zM512 470.285179c-26.490328 0-47.967478-22.273283-47.967478-49.758264 0-27.486004 21.478174-49.759287 47.967478-49.759287 26.489304 0 47.967478 22.273283 47.967478 49.759287C559.966455 448.010873 538.489304 470.285179 512 470.285179zM703.869912 470.285179c-26.490328 0-47.967478-22.273283-47.967478-49.758264 0-27.486004 21.478174-49.759287 47.967478-49.759287 26.490328 0 47.967478 22.273283 47.967478 49.759287C751.83739 448.010873 730.359216 470.285179 703.869912 470.285179zM799.803845 719.069335l-575.609737 0c-52.979632 0-95.933933-44.559868-95.933933-99.518574l0-373.176235c0-54.959729 43.915186-105.619526 98.112552-105.619526l146.19771 0C398.052808 113.60873300000003 503.521908 4.416844999999967 503.521908 4.416844999999967c4.683672-4.870938 12.272511-4.870938 16.956184 0 0 0 77.220732 87.551008 127.531582 136.338155l149.616576 0c54.198389 0 98.113575 50.66082 98.113575 105.619526L895.739824 619.550761C895.739824 674.509467 852.7845 719.069335 799.803845 719.069335zM847.772346 246.37452599999995c0-27.474748-23.047926-56.3064-50.14712-56.3064L650.491191 190.068126c-17.822924 0-33.843806-18.327414-33.843806-18.327414l-103.312994-107.153462L410.044934 171.74071200000003c0 0-19.675108 18.327414-36.538171 18.327414l-147.134035 0c-27.099195 0-50.146097 28.831652-50.146097 56.3064L176.22663 619.550761c0 27.484981 21.47715 49.760311 47.967478 49.760311l575.609737 0c26.490328 0 47.968501-22.275329 47.968501-49.760311L847.772346 246.37452599999995z"  horiz-adv-x="1024" />

    
    <glyph glyph-name="toudixiang" unicode="&#58910;" d="M898.7-58.5H149.9c-9.6 0-16.8 7.8-16.8 16.8V443.9c0 9.6 7.8 16.8 16.8 16.8h748.8c9.6 0 16.8-7.8 16.8-16.8v-485.6c0.6-9.1-7.2-16.8-16.8-16.8z m-732 34.3h714.5V427.1H166.7v-451.3zM682.9 184.2H365c-34.9 0-63.1 28.2-63.1 63.1s28.2 63.1 63.1 63.1h317.9c34.9 0 63.1-28.2 63.1-63.1 0.6-34.8-27.6-63.1-63.1-63.1z m-317.9 92c-16.2 0-28.8-13.2-28.8-28.8 0-16.2 13.2-28.8 28.8-28.8h317.9c16.2 0 28.8 13.2 28.8 28.8 0 16.2-13.2 28.8-28.8 28.8H365zM430.5 696.2c12 0 21.6 9.6 21.6 21.6s-9.6 21.6-21.6 21.6c-11.4 0-21-9.6-21.6-21.6 0-11.9 9.6-21.6 21.6-21.6zM404.7 655.4h47.5c7.2 0 13.2 6 13.2 13.2s-6 13.2-13.2 13.2h-47.5c-7.2 0-13.2-6-13.2-13.2s6-13.2 13.2-13.2zM517.1 697.4h140.6c6.6 0 12.6 5.4 12.6 12.6 0 7.2-5.4 12.6-12.6 12.6H517.1c-7.2 0-12.6-5.4-12.6-12.6-0.1-7.1 5.4-12.6 12.6-12.6zM657.7 651.8h-140c-7.2 0-12.6-5.4-12.6-12.6 0-7.2 5.4-12.6 12.6-12.6h140c6.6 0 12.6 5.4 12.6 12.6 0 7.2-5.4 12.6-12.6 12.6zM657.7 582.8H389.1c-7.2 0-12.6-5.4-12.6-12.6s5.4-12.6 12.6-12.6h268.6c6.6 0 12.6 5.4 12.6 12.6 0 7.2-5.4 12.6-12.6 12.6zM405.3 640.4h47.5c15.6 0 28.2 12.6 28.2 28.2 0 13.2-9 24-21.6 27 4.8 6 7.8 13.8 7.8 22.2 0 19.8-16.2 36.7-36.7 36.7-20.4 0-36.7-16.2-36.7-36.7 0-8.4 3-15.6 7.2-21.6-13.2-1.2-24-13.2-24-27.6 0-15.5 12.7-28.2 28.3-28.2z m25.2 99.2c12 0 21.6-9.6 21.6-21.6s-9.6-21.6-21.6-21.6-21.6 9.6-21.6 21.6c0.6 11.9 10.2 21.6 21.6 21.6z m-25.8-57.8h47.5c7.2 0 13.2-6 13.2-13.2s-6-13.2-13.2-13.2h-47.5c-7.2 0-13.2 6-13.2 13.2s6 13.2 13.2 13.2zM571.8 510.6H390.3c-7.2 0-12.6-5.4-12.6-12.6s5.4-12.6 12.6-12.6h181.5c6.6 0 12.6 5.4 12.6 12.6s-5.4 12.6-12.6 12.6zM695.1 828.6H353.2c-20.4 0-37.3-16.8-37.3-37.3v-349.8l416.5 1.2V791.2c0 20.4-16.9 37.4-37.3 37.4z m13.2-367.8H341.1V791.2c0 6.6 5.4 12.6 12.6 12.6h341.9c6.6 0 12.6-5.4 12.6-12.6v-330.5h0.1zM914 451.1l-90.1 199.5c-3 6-9 10.2-15.6 10.2H722v-34.2h75.6l74.5-165.2H176.2l75.1 165.2H331v34.2h-91.2c-6.6 0-12.6-4.2-15.6-10.2l-90.1-199.5c-2.4-5.4-1.8-11.4 1.2-16.2s8.4-7.8 14.4-7.8h748.8c6 0 11.4 3 14.3 7.8 3 4.8 3.6 10.8 1.2 16.2z"  horiz-adv-x="1024" />

    
    <glyph glyph-name="zixun1" unicode="&#58881;" d="M893.918 667.526c-5.757 32.983-28.638 41.233-38.207 43.248l-2.723 0.574h-15.544c-0.575 0.042-1.153 0.072-1.736 0.072h-27.923c-0.584 0-1.164-0.031-1.737-0.072h-1.584v-0.172c-11.219-1.612-19.845-11.261-19.845-22.928v-7.219c0-11.665 8.626-21.316 19.845-22.928v-0.223h2.648c0.224-0.005 0.452-0.016 0.68-0.016h27.92c0.229 0 0.452 0.011 0.68 0.016h4.949c0.422-2.819 0.532-6.566 0.19-9.55l-0.231-1.502v-561.207c-1.065-16.143-6.546-28.281-16.287-36.078-5.842-4.676-11.848-6.751-14.572-7.517h-43.516l0.026 0.66c-17.347 0.676-27.815 7.193-33.931 21.124-5.352 12.187-5.205 25.207-5.174 26.525l0.032 0.416v583.107c1.748 32.486-6.239 57.383-23.751 74.018-20.096 19.089-44.953 19.272-52.504 18.832l-462.919-0.005c-20.398-0.166-37.823-7.65-50.393-21.635-22.848-25.428-21.501-63.809-20.831-72.832v-581.439c-0.219-5.405-0.307-25.713 9.248-47.013 14.656-32.673 44.871-52.263 85.076-55.155l0.956-0.069 604.618 0.301c3.212 0.486 20.144 3.563 37.762 16.433 16.707 12.201 37.14 35.639 39.583 77.97l0.046 0.767v559.306c0.428 4.324 0.975 13.787-0.842 24.195v0zM214.726 42.022c-12.65 1.012-29.949 4.596-38.616 22.348-5.386 11.034-5.26 22.617-5.22 24.067l0.048 0.516v585.713l-0.128 1.308c-0.6 6.081 0.004 25.279 7.259 33.352 1.703 1.897 4.34 3.838 10.97 3.91l466.149 0.113c1.46 0.011 8.022-0.152 12.35-4.479 5.378-5.374 7.832-16.988 6.911-32.702l-0.046-0.781v-583.177c-0.197-5.447-0.273-27.562 9.759-50.187l-469.436 0.001zM616.715 629.399c0-15.502-12.564-28.067-28.067-28.067h-334.146c-15.502 0-28.072 12.565-28.072 28.067v0c0 15.502 12.569 28.069 28.072 28.069h334.146c15.503 0 28.067-12.566 28.067-28.069v0 0zM616.715 125.507v0zM615.782 473.451c0-15.502-12.565-28.067-28.067-28.067h-334.146c-15.502 0-28.072 12.564-28.072 28.067v0c0 15.502 12.564 28.067 28.072 28.067h334.146c15.502 0.001 28.068-12.564 28.068-28.067zM615.782 320.888c0-15.502-12.565-28.067-28.067-28.067h-334.146c-15.502 0-28.072 12.565-28.072 28.067v0c0 15.503 12.564 28.067 28.072 28.067h334.146c15.502 0.001 28.068-12.565 28.068-28.067zM393.909 167.552c0-15.503-12.565-28.067-28.067-28.067h-112.27c-15.502 0-28.072 12.565-28.072 28.067v0c0 15.502 12.564 28.067 28.072 28.067h112.269c15.503 0 28.068-12.565 28.068-28.067v0 0zM393.909 167.552z"  horiz-adv-x="1024" />

    
    <glyph glyph-name="wode1" unicode="&#58941;" d="M781.225 261.341c-12.659 9.92-32.18 7.22-41.819-5.66-9.96-13.141-1.48-32.101 11.539-42.22 96.101-74.82 151.221-188.26 151.221-311.28 0-16.66 13.38-30.181 29.8-30.181 16.44 0 23.76 13.521 23.76 30.181-0.001 142.02-63.601 272.92-174.501 359.16zM512.006 896c-163.181 0-295.92-135.16-295.92-301.279 0-109.94 60.27-211.899 154.92-264.359-179.08-61.341-302.73-234.94-302.73-428.181 0-16.66 7.351-30.181 23.78-30.181 19.71 0 29.78 13.521 29.78 30.181 0 215.841 178.35 391.42 390.17 391.42 163.18 0 295.919 135.079 295.919 301.12C807.925 760.84 675.186 896 512.006 896z m0-549.479c-134.271 0-243.511 111.338-243.511 248.199 0 136.859 109.24 248.199 243.511 248.199 134.359 0 243.68-111.34 243.68-248.199 0-136.861-109.321-248.199-243.68-248.199z"  horiz-adv-x="1024" />

    
    <glyph glyph-name="sousuo" unicode="&#58950;" d="M923.412-27.523c-6.248-6.248-16.379-6.248-22.627 0L742.392 130.869c-6.248 6.248-6.248 16.379 0 22.627 6.248 6.248 16.379 6.248 22.627 0l158.392-158.392c6.249-6.248 6.249-16.378 0.001-22.627z m-475.51 123.51c-194.404 0-352 157.596-352 352s157.596 352 352 352 352-157.596 352-352-157.596-352-352-352z m0 672c-176.731 0-320-143.269-320-320s143.269-320 320-320 320 143.269 320 320-143.269 320-320 320z m73-583c-8.837 0-16 7.163-16 16s7.163 16 16 16c8.836 0 16-7.163 16-16s-7.163-16-16-16z m-73-9c-150.221 0-272 121.779-272 272 0 8.837 7.163 16 16 16s16-7.163 16-16c0-132.548 107.452-240 240-240 8.837 0 16-7.163 16-16s-7.163-16-16-16z"  horiz-adv-x="1024" />

    
    <glyph glyph-name="setting" unicode="&#58919;" d="M1022.208 245.2992c1.4336-8.8064 1.0752-19.4048-1.1264-31.8464-2.2016-12.4928-5.8368-25.088-10.9568-37.9392-5.12-12.8-11.3664-24.3712-18.688-34.6112-7.3216-10.24-15.36-17.6128-24.2176-22.016a53.1456 53.1456 0 0 0-23.04-6.5536c-6.656 0-13.9264 1.4336-22.016 4.4032a228.6592 228.6592 0 0 1-27.4432 6.0416 128 128 0 0 1-33.536 1.0752 161.4336 161.4336 0 0 1-34.0992-7.168 66.56 66.56 0 0 1-29.1328-18.6368 108.1856 108.1856 0 0 1-30.72-62.6688c-2.9696-23.4496 0.3072-45.824 9.8816-67.072 7.3216-14.6432 6.1952-29.2864-3.328-43.9296a82.176 82.176 0 0 0-20.8896-18.1248c-9.5232-6.2464-19.968-11.9296-31.3344-17.0496-11.3152-5.12-23.2448-9.216-35.6864-12.0832a146.176 146.176 0 0 0-32.9728-4.4032 28.0064 28.0064 0 0 0-18.688 7.68 41.6256 41.6256 0 0 0-12.0832 16.4864h-1.1264a135.8848 135.8848 0 0 1-41.216 58.8288 101.2736 101.2736 0 0 1-67.584 24.7296c-24.9344 0-47.4624-8.2432-67.584-24.7296a133.632 133.632 0 0 1-42.3424-57.7024 37.4272 37.4272 0 0 0-16.4864-19.2512 49.3568 49.3568 0 0 0-24.1664-6.0416c-10.24 0-21.8112 1.8432-34.6112 5.4784-12.8 3.6864-25.6512 8.2432-38.5024 13.7216a184.1152 184.1152 0 0 0-34.6112 19.2512c-10.24 7.3216-17.92 14.6432-23.04 22.016a33.536 33.536 0 0 0-6.0928 18.1248c-0.3584 6.9632 2.4064 16.64 8.2432 29.1328 8.0896 16.8448 11.1616 36.0448 9.3696 57.7024-1.8432 21.6064-11.2128 41.5744-28.0576 59.904a71.4752 71.4752 0 0 1-37.376 21.4016 151.7568 151.7568 0 0 1-41.728 3.84c-15.4112-0.7168-31.1808-3.6352-47.3088-8.7552-10.24-2.9696-20.48-2.2016-30.72 2.2016-8.0896 2.9184-15.616 9.728-22.528 20.3264a227.6864 227.6864 0 0 0-31.3856 74.752c-2.9184 13.5168-3.6352 24.6784-2.2016 33.4848 2.2016 16.128 9.5744 26.368 22.016 30.7712 22.016 8.8064 41.7792 23.296 59.392 43.4176 17.5616 20.1728 26.3168 42.7008 26.3168 67.584 0 25.6512-8.7552 48.0256-26.368 67.072a162.7648 162.7648 0 0 1-59.392 41.7792C16.5376 498.1248 11.0592 503.4496 6.656 511.8464A55.2448 55.2448 0 0 0 0 537.7024c0 9.5232 1.4848 20.1216 4.4032 31.8464 2.9184 11.776 6.7584 23.0912 11.52 34.0992 4.7616 10.9568 10.24 21.0432 16.4864 30.208s13.0048 15.9232 20.3264 20.3264a25.4464 25.4464 0 0 0 17.0496 4.4032c5.5296-0.7168 11.5712-2.2016 18.1248-4.4032 22.016-8.8064 44.9024-11.52 68.7104-8.192a111.616 111.616 0 0 1 63.232 31.2832c8.7552 8.8064 15.1552 19.6096 19.2 32.4096a178.688 178.688 0 0 1 7.68 37.888 176.0256 176.0256 0 0 1 0 34.0992c-1.0752 10.24-1.9968 17.6128-2.7136 22.016a117.6576 117.6576 0 0 0-3.84 15.36 23.808 23.808 0 0 0 1.6384 15.36c4.4032 10.2912 12.288 19.3024 23.6032 26.9824a184.832 184.832 0 0 0 36.864 19.2c13.1584 5.12 26.0096 9.0112 38.4 11.5712 12.4928 2.56 22.3744 3.84 29.696 3.84 9.5744 0 17.0496-3.072 22.528-9.3184 5.5296-6.2464 9.3696-12.6464 11.5712-19.2512 8.0384-19.8144 21.248-37.1712 39.5776-52.224 18.3296-15.0016 39.936-22.528 64.8192-22.528 25.6512 0 48.384 7.168 68.1472 21.4528 19.8144 14.2848 33.7408 32.4096 41.7792 54.3744 2.9184 5.888 7.5264 11.9296 13.7728 18.176C638.7712 892.8768 645.12 896 651.776 896c10.24 0 21.4528-1.4848 33.536-4.4032 12.0832-2.9184 24.0128-6.9632 35.7376-12.0832 11.7248-5.12 22.528-11.7248 32.4096-19.7632 9.8816-8.0896 17.7664-16.896 23.6544-26.4192 3.6352-5.8368 4.7616-12.288 3.2768-19.2a67.5328 67.5328 0 0 0-4.4032-14.848 116.5824 116.5824 0 0 1-8.8064-67.072c3.6864-23.4496 14.336-43.9296 31.8976-61.5424 17.5616-17.5616 39.2192-27.2896 64.8192-29.1328 25.6512-1.8432 49.4592 2.4064 71.4752 12.6464a33.8944 33.8944 0 0 0 21.4016 4.4032 33.4848 33.4848 0 0 0 21.504-9.8816c10.9568-10.24 20.6336-25.856 29.0816-46.7456 8.448-20.8384 14.08-41.9328 17.0496-63.1808 1.4336-12.4416-0.5632-22.1696-6.0416-29.1328a40.96 40.96 0 0 0-17.0496-13.7216 129.024 129.024 0 0 1-58.2656-42.3424 107.008 107.008 0 0 1-24.1664-68.6592c0-24.9344 6.7584-46.7456 20.3264-65.4336s31.3344-32.0512 53.2992-40.0896c5.12-2.9696 9.5232-5.888 13.2096-8.8064a49.408 49.408 0 0 0 16.4864-25.2928zM511.0784 146.432c32.9728 0 64.1536 6.2464 93.44 18.688a234.5984 234.5984 0 0 1 76.3904 51.712c21.6064 21.9136 38.656 47.4112 51.0976 76.3392a232.448 232.448 0 0 1 18.688 92.8768 232.448 232.448 0 0 1-18.688 92.8768 240.64 240.64 0 0 1-51.0976 75.8272 239.0016 239.0016 0 0 1-76.3904 51.1488 236.3392 236.3392 0 0 1-93.44 18.688 232.448 232.448 0 0 1-92.8768-18.688 240.64 240.64 0 0 1-75.776-51.1488 240.64 240.64 0 0 1-51.2-75.776 232.448 232.448 0 0 1-18.6368-92.928c0-32.9728 6.2464-63.9488 18.688-92.8768s29.4912-54.4256 51.0976-76.3904c21.6064-22.016 46.8992-39.2192 75.8272-51.6608a232.448 232.448 0 0 1 92.8768-18.688z"  horiz-adv-x="1024" />

    
    <glyph glyph-name="xiaoxi" unicode="&#59034;" d="M257.987 414.826c0 0 0 0 0 0 0-28.218 22.876-51.094 51.094-51.094 28.218 0 51.094 22.876 51.094 51.094 0 0 0 0 0 0 0 0 0 0 0 0 0 28.218-22.876 51.094-51.094 51.094-28.218 0-51.094-22.876-51.094-51.094s0 0 0 0zM459.935 414.826c0 0 0 0 0 0 0-28.218 22.876-51.094 51.094-51.094 28.218 0 51.094 22.876 51.094 51.094 0 0 0 0 0 0 0 0 0 0 0 0 0 28.218-22.876 51.094-51.094 51.094-28.218 0-51.094-22.876-51.094-51.094s0 0 0 0zM661.883 414.826c0-28.218 22.876-51.094 51.094-51.094s51.094 22.876 51.094 51.094c0 28.218-22.876 51.094-51.094 51.094-28.218 0-51.094-22.876-51.094-51.094zM891.502 558.034c-20.995 43.449-50.851 82.527-88.959 115.902-77.551 68.084-180.346 105.465-289.451 105.465-109.227 0-212.021-37.501-289.451-105.465-38.108-33.375-67.963-72.332-88.959-115.902-21.845-45.39-32.89-93.571-32.89-143.209 0-58.254 15.899-116.144 45.875-167.602 26.214-44.905 63.351-85.075 107.892-116.873v-120.756c0-10.437 5.583-20.025 14.563-25.244 4.491-2.548 9.588-3.884 14.563-3.884s10.073 1.334 14.563 3.884l127.795 73.789c28.157-5.34 57.162-8.010 86.047-8.010 109.227 0 212.021 37.501 289.451 105.465 38.108 33.375 67.963 72.332 88.959 115.902 21.845 45.39 32.89 93.571 32.89 143.209 0.122 49.759-11.044 97.94-32.89 143.329zM513.092 108.385c-28.641 0-57.283 3.035-84.955 8.98-7.039 1.456-14.442 0.364-20.631-3.277l-93.693-54.128v85.682c0 9.83-4.976 18.932-13.107 24.394-89.444 58.619-140.781 147.82-140.781 244.789 0 168.938 158.379 306.32 353.166 306.32 194.666 0 353.166-137.383 353.166-306.32s-158.5-306.442-353.166-306.442z"  horiz-adv-x="1024" />

    
    <glyph glyph-name="baike-" unicode="&#58995;" d="M475.608 559.634c-22.97 0-34.996-18.721-34.996-37.208v-313.875h72.024v313.876c0 18.29-13.85 37.207-37.028 37.207zM547.25 208.552h30.202l-30.202 193.413zM371.504 559.651c-24.106 0-37.115-19.18-37.115-37.225v-313.875h71.838v313.876c0 18.53-10.737 37.224-34.723 37.224zM512.134 831.222c-247.088 0-447.394-200.306-447.394-447.394 0-247.091 200.306-447.394 447.394-447.394s447.394 200.303 447.394 447.394c0 247.088-200.306 447.394-447.394 447.394zM722.548 173.599h-19.715c-0.928-0.011-1.786-0.016-1.956-0.016l-399.159 0.016c-9.612 0-17.476 7.864-17.476 17.476 0 8.978 6.882 16.34 15.62 17.285v314.061c0 39.508 32.135 71.648 71.642 71.648 19.913 0 38.536-8.11 52.046-22.457 13.522 14.347 32.145 22.451 52.058 22.451 35.695 0 65.383-26.247 70.768-60.457 7.306 10.427 16.297 19.122 26.666 25.881-13.493-8.143 3.24 1.819 22.181 4.572 18.962 2.747 37.825-2.054 53.15-13.5 15.335-11.447 25.297-28.181 28.050-47.126l45.848-294.88h0.278c9.612 0 17.476-7.864 17.476-17.476s-7.864-17.476-17.476-17.476zM628.537 522.568c-8.586 6.073-18.361 8.694-27.689 7.345-9.415-1.36-19.617-6.936-24.248-13.249-5.286-7.182-10.257-19.978-9.098-28.115l44.411-279.998h76.229l-45.603 289.774c-1.060 7.319-4.337 17.4-14.003 24.243z"  horiz-adv-x="1024" />

    
    <glyph glyph-name="faxian" unicode="&#58951;" d="M511.920119-81.073989c-255.96006 0-464.994108 209.034049-464.994108 464.994108 0 185.571043 110.916026 354.078082 283.689066 428.7331 236.763055 98.118023 509.787119-12.798003 607.905141-251.694059 98.118023-234.630055-10.665002-505.521118-245.295057-605.772141-57.591013-23.463005-119.448028-36.261008-181.305042-36.261008z m0 878.796204c-228.231053 0-413.802096-185.571043-413.802096-413.802096 0-108.783025 42.66001-215.43305 121.581028-292.221068 162.108038-159.975037 424.467099-159.975037 584.442136 2.133001s159.975037 420.201098 0 582.309135C727.353169 752.929205 620.703144 797.722215 511.920119 797.722215zM607.905141 787.057213c-14.931003 0-25.596006 10.665002-25.596005 25.596006 0 10.665002 6.399001 19.197004 14.931003 23.463005 87.45302 42.66001 168.507039 61.857014 236.763055 59.724014 14.931003 0 25.596006-12.798003 25.596006-27.729006 0-14.931003-12.798003-25.596006-27.729006-25.596006-59.724014 2.133-132.246031-17.064004-213.30005-55.458013h-10.665003z m-405.270094-915.057213c-61.857014 0-113.049026 19.197004-147.177034 53.325012-38.394009 38.394009-57.591013 93.852022-53.325013 162.108038 2.133 61.857014 23.463005 134.379031 59.724014 211.167049 6.399001 12.798003 21.330005 17.064004 34.128008 10.665003 12.798003-6.399001 17.064004-21.330005 10.665003-31.995008-66.123015-138.645032-72.522017-258.09306-17.064004-313.551073 25.596006-25.596006 63.990015-38.394009 110.916026-38.394009 57.591013 0 125.847029 19.197004 202.635047 55.458013 100.251023 49.059011 202.635047 123.714029 296.487069 215.43305S868.131202 390.319121 917.190213 490.570144c40.527009 83.187019 57.591013 157.842037 55.458013 217.566051 0 14.931003 10.665002 25.596006 23.463006 27.729006 14.931003 0 25.596006-10.665002 27.729006-23.463005 4.266001-70.389016-17.064004-153.576036-59.724014-245.295058C912.924212 362.590114 834.003194 255.940089 738.018172 157.822067S533.250124-17.083974 426.600099-68.275986c-76.788018-36.261008-149.310035-57.591013-211.167049-59.724014h-12.798003zM915.057213 823.318221c0-19.197004 17.064004-36.261008 36.261008-36.261008s36.261008 17.064004 36.261009 36.261008-17.064004 36.261008-36.261009 36.261009-36.261008-17.064004-36.261008-36.261009zM422.334098 435.112131c-66.123015 0-119.448028 53.325012-119.448028 119.448028s53.325012 119.448028 119.448028 119.448028S541.782126 620.683174 541.782126 554.560159c0-66.123015-53.325012-119.448028-119.448028-119.448028z m0 198.369046c-42.66001 0-76.788018-34.128008-76.788018-76.788018s34.128008-76.788018 76.788018-76.788018 76.788018 34.128008 76.788018 76.788018c0 40.527009-34.128008 76.788018-76.788018 76.788018zM533.250124 196.216075c-42.66001 0-76.788018 34.128008-76.788018 76.788018h21.330005-21.330005c0 42.66001 34.128008 76.788018 76.788018 76.788018s76.788018-34.128008 76.788018-76.788018S575.910134 196.216075 533.250124 196.216075z m-53.325012 74.655018h21.330005c0-19.197004 14.931003-34.128008 34.128008-34.128008 19.197004 0 34.128008 14.931003 34.128008 34.128008 0 19.197004-14.931003 34.128008-34.128008 34.128008-19.197004 0-34.128008-14.931003-34.128008-34.128008h-21.330005z"  horiz-adv-x="1024" />

    
    <glyph glyph-name="shouye" unicode="&#59008;" d="M81.264365 396.951633C48.354864 363.25958 59.924842 335.946775 107.152702 335.946775L179.680605 335.946775 179.680605 93.590776 180.211432-10.77939C180.211432-39.818019 203.754799-63.366212 232.798255-63.366212L369.227799-63.366212C398.271255-63.366212 421.814622-39.818019 421.814622-10.77939L421.814622 166.665984C421.814622 178.410622 431.310436 187.931533 443.051795 187.931533L568.260486 187.931533C579.989453 187.931533 589.497658 178.347292 589.497658 166.665984L589.497658-10.77939C589.497658-39.818019 613.041024-63.366212 642.08448-63.366212L778.514027-63.366212C807.557481-63.366212 831.100849-39.818019 831.100849-10.77939L831.100849 93.590776 831.62685 335.946775 904.156969 335.946775C951.365647 335.946775 962.925602 363.292154 930.047917 396.951633L565.244064 770.430103C532.334562 804.122157 478.945901 804.089583 446.068215 770.430103L81.264365 396.951633Z"  horiz-adv-x="1024" />

    
    <glyph glyph-name="xing1" unicode="&#58886;" d="M231.206-69.927a22.13 22.13 0 0 0-21.818 25.873l51.605 300.875L42.396 469.902a22.138 22.138 0 0 0-5.601 22.688 22.142 22.142 0 0 0 17.868 15.065l302.093 43.896L491.858 825.297a22.135 22.135 0 0 0 39.696 0l135.101-273.746 302.095-43.896a22.135 22.135 0 0 0 12.265-37.753l-218.6-213.081 51.605-300.875a22.135 22.135 0 0 0-32.114-23.332L511.705 74.67 241.501-67.386a22.136 22.136 0 0 0-10.298-2.541zM105.407 470.299l194.82-189.9a22.146 22.146 0 0 0 6.366-19.591l-45.992-268.142L501.41 119.267a22.138 22.138 0 0 0 20.599 0l240.807-126.601-45.992 268.142a22.147 22.147 0 0 0 6.366 19.591l194.819 189.9-269.23 39.121a22.14 22.14 0 0 0-16.667 12.108L511.708 765.494 391.302 521.528a22.136 22.136 0 0 0-16.664-12.108l-269.233-39.121z"  horiz-adv-x="1024" />

    
    <glyph glyph-name="shoucang1" unicode="&#58927;" d="M658.432 491.008c-3.072 3.584-5.12 7.68-6.144 12.288 0 1.024-17.408 101.376-28.672 159.232-1.024 4.096-2.56 7.168-4.608 8.192-1.536 1.024-4.608 0.512-8.704-1.536-53.248-25.088-145.408-70.656-146.432-71.168-4.096-2.048-8.704-2.56-13.312-2.048-1.024 0-105.472 12.8-162.816 18.432H286.72c-1.024 0-2.56-0.512-4.096-2.048-2.048-2.048-3.072-5.12-3.072-7.68 6.144-57.856 19.456-162.304 19.456-163.328 0.512-4.608 0-8.704-2.048-12.8-0.512-1.024-45.568-95.744-69.632-149.504-2.56-5.632-2.56-8.704-2.048-9.216 0.512-0.512 1.536-1.536 4.096-2.048 55.808-10.752 161.792-29.184 162.816-29.184 4.608-1.024 8.704-3.072 12.288-6.144 0.512-0.512 76.288-72.704 118.272-111.616 3.072-3.072 5.632-4.096 6.656-4.608 1.024 0.512 2.56 2.56 5.12 6.656 28.672 51.2 78.848 145.408 79.36 146.432 2.048 4.096 5.12 7.168 9.216 9.216 1.024 0.512 90.112 49.664 141.312 79.36 6.656 3.584 8.704 6.656 8.704 7.68 0 0.512-1.024 3.584-5.632 8.192-37.888 42.496-108.032 116.224-109.056 117.248z m-250.88-141.312c-4.608-4.608-10.24-6.656-16.384-6.656-6.144 0-11.776 2.048-16.384 6.656l-16.896 16.896c-9.216 9.216-9.216 23.552 0 32.768 9.216 9.216 23.552 9.216 32.768 0l16.896-16.896c9.216-9.216 9.216-24.064 0-32.768z m84.992 184.832c9.216 9.216 23.552 9.216 32.768 0l16.896-16.896c9.216-9.216 9.216-23.552 0-32.768-4.608-4.608-10.24-6.656-16.384-6.656-6.144 0-11.776 2.048-16.384 6.656L492.544 501.76c-9.216 9.216-9.216 24.064 0 32.768z m65.024-188.928c-17.408-17.408-39.424-22.528-56.32-22.528-6.656 0-12.288 0.512-16.896 1.536-12.288 3.072-19.968 15.36-17.408 27.648 3.072 12.288 15.36 19.968 27.648 17.408 1.024 0 18.432-3.584 30.208 8.192 11.776 11.776 8.192 30.72 8.192 30.72-2.56 12.288 5.12 25.088 17.92 27.648 12.288 2.56 25.088-5.12 27.648-17.92 3.584-15.36 3.072-48.64-20.992-72.704zM512 880.64C237.568 880.64 15.36 658.432 15.36 384s222.208-496.64 496.64-496.64 496.64 222.208 496.64 496.64-222.208 496.64-496.64 496.64z m63.488-781.312c-12.288-21.504-27.648-28.16-37.888-29.696-2.048-0.512-4.608-0.512-6.656-0.512-10.24 0-24.064 3.584-38.4 16.896-36.352 33.28-96.256 90.624-114.176 107.52-24.576 4.096-109.056 18.944-156.672 28.16-15.872 3.072-29.184 12.8-36.352 26.112-5.12 10.24-9.216 27.136 1.024 49.664 20.992 46.08 56.832 122.368 67.072 144.384-3.072 24.064-13.312 107.52-18.432 157.696-1.536 16.384 4.096 33.792 16.384 45.568 11.264 11.264 26.624 16.896 42.496 15.36 49.152-5.12 132.608-14.848 156.672-17.92 21.504 10.752 95.232 47.104 140.8 68.096 16.896 7.68 34.304 8.192 49.152 0.512 14.848-7.68 25.6-22.528 29.184-40.448 9.728-49.152 23.552-129.536 27.648-153.088 16.896-17.408 72.192-76.288 105.472-113.152 16.896-18.944 18.432-35.84 16.896-46.592-1.536-11.264-8.704-27.136-31.232-40.448-43.52-25.6-115.2-65.024-136.192-76.8-11.776-22.016-52.224-97.792-76.8-141.312z m262.144-41.472c-4.608-4.608-10.24-6.656-16.384-6.656-6.144 0-11.776 2.56-16.384 7.168l-112.64 114.688c-9.216 9.216-8.704 24.064 0 32.768 9.216 9.216 24.064 8.704 32.768 0l112.64-114.688c9.216-9.728 9.216-24.064 0-33.28z"  horiz-adv-x="1024" />

    
    <glyph glyph-name="sousuo2" unicode="&#58911;" d="M457.625 151.649c-82.318 0-159.71 32.056-217.918 90.263-120.159 120.161-120.159 315.675 0 435.834 58.208 58.208 135.598 90.264 217.918 90.264 82.318 0 159.708-32.056 217.916-90.264 76.906-76.906 107.655-190.195 80.247-295.66-2.511-9.658-12.375-15.444-22.035-12.944-9.658 2.511-15.453 12.375-12.944 22.035 24.2 93.116-2.938 193.13-70.823 261.014-51.381 51.383-119.697 79.68-192.361 79.68-72.666 0-140.982-28.298-192.362-79.68-106.068-106.067-106.068-278.655 0-384.723 51.381-51.383 119.697-79.678 192.362-79.678 72.664 0 140.98 28.296 192.361 79.678 7.059 7.055 18.497 7.055 25.555 0 7.057-7.057 7.057-18.499 0-25.555-58.208-58.208-135.598-90.264-217.916-90.264zM815.52 83.863a18.022 18.022 0 0 0-12.778 5.292L649.985 241.912c-7.057 7.057-7.057 18.499 0 25.555 7.059 7.055 18.497 7.055 25.555 0L828.298 114.71c7.057-7.057 7.057-18.499 0-25.555a18.016 18.016 0 0 0-12.778-5.292z"  horiz-adv-x="1024" />

    
    <glyph glyph-name="chuangyikongjianICON_fuzhi-" unicode="&#58994;" d="M511.22 834C262.73 834 62 633.2850000000001 62 384.795S262.73-66 511.22-66C759.71-66 962 134.70000000000005 962 384.795 962 634.875 759.71 834 511.22 834z m244.365-330.345L472.415 217.04999999999995c-13.74-13.725-34.32-13.725-48.06 0l-125.295 123.555c-12.015 12.03-15.435 30.93-5.13 44.64 12.015 17.16 37.77 18.87 51.495 5.145l90.96-89.25a16.605 16.605 0 0 1 24.03 0l245.415 248.865c12.03 12.015 30.885 15.435 44.61 5.13 17.16-12 18.885-36.03 5.145-51.48z"  horiz-adv-x="1024" />

    
    <glyph glyph-name="xiangqing" unicode="&#59552;" d="M298.666667 554.666667h384v-42.666667H298.666667v42.666667z m0-128h298.666666v-42.666667H298.666667v42.666667z m0-128h298.666666v-42.666667H298.666667v42.666667zM170.666667 768h682.666666v-554.666667h42.666667V789.482667c0 11.52-9.557333 21.184-21.333333 21.184H149.333333c-11.626667 0-21.333333-9.557333-21.333333-21.376v-810.581334C128-33.066667 137.557333-42.666667 149.333333-42.666667h490.666667v42.666667H170.666667V768z m469.333333-576.042667c0 11.797333 9.728 21.376 21.376 21.376H896L640-42.666667V191.957333z m153.002667-21.290666H682.666667v-110.336L793.002667 170.666667z"  horiz-adv-x="1024" />

    
    <glyph glyph-name="qian" unicode="&#58917;" d="M831.44 683.88a24 24 0 1 1-35-32.86A389.49 389.49 0 1 0 723 712.24a24 24 0 1 1 26 40.35 438.53 438.53 0 1 1 82.48-68.72zM605.27 611.83l-77.93-160a324.94 324.94 0 0 1-15.23-35.74h-1.17q-8.21 20.8-14.65 34.28l-77.64 161.46h-65.33l111-207.13h-90.79V359h107.81v-63.57H373.53v-46h107.81V158h57.13v91.43h104.59v46H538.47V359h104.59v45.7H554l112.5 207.13z"  horiz-adv-x="1024" />

    
    <glyph glyph-name="gongsixinxi" unicode="&#59468;" d="M532.9 611.4H323.8c-23.1 0-41.8-18.5-41.8-41.4v-413.5h292.7V570.1c0 22.8-18.7 41.3-41.8 41.3zM491.1 322H323.8v41.4h167.3V322z m0 82.7H323.8V446h167.3v-41.3z m0 82.7H323.8v41.4h167.3v-41.4z m209.1-82.7h-83.6v-248.1H742V363.3c0 22.9-18.7 41.4-41.8 41.4zM512 832C264.6 832 64 631.4 64 384s200.6-448 448-448 448 200.6 448 448S759.4 832 512 832z m313.6-716.8H198.4v41.4h41.8V570.1c0 45.7 37.4 82.7 83.6 82.7h209.1c46.2 0 83.6-37 83.6-82.7V446h83.6c46.2 0 83.6-37 83.6-82.7v-206.8h41.8v-41.3z"  horiz-adv-x="1024" />

    
    <glyph glyph-name="dingwei" unicode="&#58885;" d="M512-64.5l-16.7 13.8c-3.4 2.8-85.1 70.8-168 169-49 58.1-88.2 114.6-116.4 168.1-36.2 68.6-54.5 132.7-54.5 190.5 0 48 9.4 94.6 28 138.4 17.9 42.4 43.6 80.4 76.2 113 32.7 32.7 70.7 58.3 113 76.2 43.9 18.6 90.4 28 138.4 28s94.6-9.4 138.4-28c42.4-17.9 80.4-43.6 113-76.2 32.7-32.7 58.3-70.7 76.2-113 18.6-43.9 28-90.4 28-138.4 0-57.8-18.3-121.9-54.5-190.5-28.2-53.5-67.4-110-116.4-168.1-82.9-98.2-164.6-166.1-168-169L512-64.5z m0 844.7c-167.3 0-303.3-136.1-303.3-303.3 0-190.4 237.6-414.4 303.3-472.8 28 24.8 87 79.5 145.3 148.6 103.4 122.6 158 234.7 158 324.2 0 167.2-136 303.3-303.3 303.3zM512 286c-105.3 0-190.9 85.6-190.9 190.9S406.7 667.8 512 667.8s190.9-85.6 190.9-190.9S617.3 286 512 286z m0 329.5c-76.4 0-138.6-62.2-138.6-138.6S435.6 338.3 512 338.3s138.6 62.2 138.6 138.6S588.4 615.5 512 615.5z"  horiz-adv-x="1024" />

    
    <glyph glyph-name="guanbi" unicode="&#59017;" d="M618.112 382.336l320.512 320.512c29.44 29.44 29.44 77.056 0 106.496s-77.056 29.44-106.496 0L511.616 488.832 195.584 804.864c-29.184 29.184-76.416 29.184-105.472 0-29.184-29.184-29.184-76.416 0-105.472l316.032-316.032L86.656 63.872c-29.44-29.44-29.44-77.056 0-106.496s77.056-29.44 106.496 0l319.36 319.36 316.032-316.032c29.184-29.184 76.416-29.184 105.472 0 29.184 29.184 29.184 76.416 0 105.472l-315.904 316.16z"  horiz-adv-x="1024" />

    
    <glyph glyph-name="shangchuantupian" unicode="&#59191;" d="M496.13948281 554.83802021h31.63666992v-341.56355449h-31.63666992zM341.16197979 399.86051719h341.56355449v-31.63666992H341.16197979zM62 834h14.06074219v-69.54443174H62zM62 725.47919004h14.06074219v-69.54443174H62zM62 614.73678281h14.06074219v-69.54443174H62zM62 507.08773886h14.06074219v-69.54443173H62zM62 398.11698516h14.06074219v-69.54443174H62zM62 288.69628769999997h14.06074219v-69.54443174H62zM62 179.72553398000002h14.06074219v-69.54443174H62zM62 70.75478026999997h14.06074219v-69.54443173H62zM133.51293565-51.826771880000024h69.54443261v-14.06074218H133.51293565zM97.48931416 834h69.54443174v-14.06074219H97.48931416zM207.61304873 834h69.54443174v-14.06074219H207.61304873zM315.43082158 834h69.54443174v-14.06074219H315.43082158zM425.55455528 834h69.54443261v-14.06074219h-69.54443261zM533.93475781 834h69.54443262v-14.06074219h-69.54443262zM643.49606269 834h69.54443262v-14.06074219h-69.54443262zM753.05736758 834h69.54443262v-14.06074219h-69.54443262zM859.69403809 834h69.54443173v-14.06074219h-69.54443174zM242.48368935-51.826771880000024h69.54443174v-14.06074218H242.48368935zM351.87626533-51.826771880000024h69.54443174v-14.06074218h-69.54443174zM461.29696279-51.826771880000024h69.54443174v-14.06074218h-69.54443174zM569.81777276-51.826771880000024h69.54443173v-14.06074218h-69.54443173zM678.3667042-51.826771880000024h69.54443174v-14.06074218h-69.54443174zM787.33745791-51.826771880000024h69.54443174v-14.06074218h-69.54443174zM892.34308232-51.826771880000024H961.88751406v-14.06074218h-69.54443174zM62-38.63779569999997h14.06074219v-27.3622043H62zM947.82677188 834h14.06074218v-69.54443174h-14.06074219zM947.82677188 725.47919004h14.06074218v-69.54443174h-14.06074219zM947.82677188 614.73678281h14.06074218v-69.54443174h-14.06074219zM947.82677188 507.08773886h14.06074218v-69.54443173h-14.06074219zM947.82677188 398.11698516h14.06074218v-69.54443174h-14.06074219zM947.82677188 288.69628769999997h14.06074218v-69.54443174h-14.06074219zM947.82677188 179.72553398000002h14.06074218v-69.54443174h-14.06074219zM947.82677188 70.75478026999997h14.06074218v-69.54443173h-14.06074219zM947.82677188-38.63779569999997h14.06074218v-26.49043828h-14.06074219z"  horiz-adv-x="1024" />

    
    <glyph glyph-name="shezhi" unicode="&#58882;" d="M950.1 469.6c-5.2 27.7-22.1 45.3-42.9 44.8h-3.8c-61 0-110.7 49.7-110.7 110.7 0 19.5 9.3 41.3 9.6 42.2 10.7 24 2.5 53.5-19.1 68.5l-1.3 0.9-111 61.7-1.6 0.7c-7.1 3.1-14.9 4.7-23.2 4.7-17 0-33.6-6.8-44.6-18.2-13.2-13.6-54.5-48.8-87.3-48.8-33.1 0-74.7 35.9-87.9 49.8-11 11.6-27.8 18.5-45 18.5-8.1 0-15.8-1.5-22.8-4.5l-1.4-0.6-114.9-63.1-1.5-1c-21.6-15-29.9-44.4-19.2-68.5 0.1-0.2 9.7-22.6 9.7-42.3 0-61-49.7-110.7-110.7-110.7h-3.8c-20.8 0.4-37.7-17.1-42.9-44.8-0.4-2-9.3-49.8-9.3-87.7 0-36.7 8.4-82.5 9.3-87.7C79 267 95.5 249.4 116 249.4h4.6c61 0 110.7-49.7 110.7-110.7 0-20-9.5-42-9.6-42.2-10.7-24-2.5-53.5 19-68.5l1.3-0.9 108.9-60.9 1.5-0.7c7.1-3.1 14.9-4.7 23.1-4.7 17.2 0 34 7.1 44.9 19 15.6 16.9 57.9 51.9 89.3 51.9 34 0 77.4-39.2 89.9-52.9 10.9-12.1 27.9-19.3 45.2-19.3 8.1 0 15.7 1.5 22.7 4.6l1.4 0.6L781.7 27l1.5 1c21.6 15 29.8 44.5 19.2 68.4-0.1 0.2-9.7 22.4-9.7 42.3 0 61 49.7 110.7 110.7 110.7h4.5c20.5 0 37 17.5 42.2 44.8 0.1 0.5 9.4 49.2 9.4 87.7-0.1 37.7-9.1 85.7-9.4 87.7z m-51.9-87.7c0-25.9-5.4-59.5-7.5-71.8-42.6-3.1-82.2-21.8-111.8-53-30.6-32.1-47.5-74.2-47.5-118.5 0-26.5 8.9-52.1 13-62.4L644 20.8c-3.5 3.8-18.3 19.1-39.1 34.6-33.5 24.9-65.6 37.5-95.3 37.5-29.4 0-61.3-12.4-94.6-36.8-20.4-14.9-34.9-29.7-38.9-34l-96.8 54.1c4.1 10.3 13 35.9 13 62.5 0 44.3-16.9 86.3-47.5 118.5-29.7 31.1-69.2 49.9-111.8 53-2.1 12.2-7.5 45.8-7.5 71.8 0 25.8 5.4 59.5 7.5 71.8 42.6 3.1 82.2 21.8 111.8 53 30.6 32.1 47.5 74.2 47.5 118.5 0 26.5-8.9 52.1-13 62.4L382 743.9c0.2 0 0.5-0.1 0.6-0.2 3.3-3.4 18.1-18.1 38.6-32.8 32.9-23.4 64.2-35.3 93-35.3 28.5 0 59.6 11.7 92.3 34.6 20.3 14.3 35 28.8 38.4 32.1 0.2 0.1 0.4 0.1 0.7 0.2l98.9-55c-4.1-10.3-13-36-13-62.5 0-44.3 16.9-86.3 47.5-118.5 29.7-31.1 69.3-49.9 111.8-53 2.1-12.1 7.4-45.8 7.4-71.6zM644.7-36zM510 540.4c-87.1 0-157.9-70.8-157.9-157.9 0-87.1 70.8-157.9 157.9-157.9 87.1 0 157.9 70.8 157.9 157.9 0 87.1-70.8 157.9-157.9 157.9z m0-254.6c-53.3 0-96.7 43.4-96.7 96.7 0 53.3 43.4 96.7 96.7 96.7 53.3 0 96.7-43.4 96.7-96.7 0-53.3-43.4-96.7-96.7-96.7z"  horiz-adv-x="1024" />

    
    <glyph glyph-name="xuanzhong-kongxin-yuanxing" unicode="&#59618;" d="M512 789.333333c224 0 405.333333-181.333333 405.333333-405.333333s-181.333333-405.333333-405.333333-405.333333S106.666667 160 106.666667 384 288 789.333333 512 789.333333m0 64C251.733333 853.333333 42.666667 644.266667 42.666667 384s209.066667-469.333333 469.333333-469.333333 469.333333 209.066667 469.333333 469.333333S772.266667 853.333333 512 853.333333zM512 384m-149.333333 0a149.333333 149.333333 0 1 1 298.666666 0 149.333333 149.333333 0 1 1-298.666666 0Z"  horiz-adv-x="1024" />

    
    <glyph glyph-name="shanchu" unicode="&#58913;" d="M816.761905 547.352381c-14.628571 0-24.380952-9.752381-24.380953-24.380952v-516.876191h-536.380952V522.971429c0 12.190476-12.190476 24.380952-24.380952 24.380952-14.628571 0-24.380952-9.752381-24.380953-24.380952v-541.257143c0-12.190476 12.190476-24.380952 24.380953-24.380953h585.142857c14.628571 0 24.380952 9.752381 24.380952 24.380953V522.971429c0 12.190476-12.190476 24.380952-24.380952 24.380952z m-170.666667-407.161905V522.971429c0 12.190476-12.190476 24.380952-24.380952 24.380952-14.628571 0-24.380952-9.752381-24.380953-24.380952V140.190476c0-12.190476 12.190476-24.380952 24.380953-24.380952 14.628571 0 24.380952 12.190476 24.380952 24.380952z m-195.047619 0V522.971429c0 12.190476-12.190476 24.380952-24.380952 24.380952-14.628571 0-24.380952-9.752381-24.380953-24.380952V140.190476c0-12.190476 12.190476-24.380952 24.380953-24.380952 14.628571 0 24.380952 12.190476 24.380952 24.380952zM936.228571 664.380952h-168.228571v121.904762c0 12.190476-12.190476 24.380952-24.380952 24.380953h-438.857143c-14.628571 0-24.380952-9.752381-24.380953-24.380953v-124.342857h-170.666666c-14.628571 0-24.380952-9.752381-24.380953-24.380952 0-12.190476 12.190476-24.380952 24.380953-24.380953h826.514285c14.628571 0 24.380952 9.752381 24.380953 24.380953s-9.752381 26.819048-24.380953 26.819047z m-216.990476 0h-390.095238v97.52381h390.095238v-97.52381z"  horiz-adv-x="1024" />

    
    <glyph glyph-name="xingbie" unicode="&#58921;" d="M832.7 721.3H608.2c-12.4 0-22.4-10-22.4-22.4s10.1-22.4 22.4-22.4h168l-173-172.8C556.6 538.9 499.8 558 441.4 558 292.6 557.9 172 437.4 172 288.8s120.6-269.1 269.4-269.1c148.8 0 269.4 120.5 269.4 269.1 0 70.9-27.6 135.2-72.5 183.3l171.9 171.8V497c0-12.4 10-22.4 22.4-22.4 12.4 0 22.4 10 22.4 22.4V698.8c0 6-2.3 11.7-6.6 15.9-4 4.2-9.7 6.6-15.7 6.6zM667 288.8c0-124.4-100.9-225.2-225.5-225.2S216 164.4 216 288.8c0 124.5 101 225.3 225.5 225.3C566 514 667 413.2 667 288.8z"  horiz-adv-x="1024" />

    
    <glyph glyph-name="lianxiwomen1" unicode="&#58899;" d="M511.766 894.726c-280.352 0-507.623-227.271-507.623-507.624 0-280.352 227.271-507.624 507.623-507.624 280.356 0 507.625 227.273 507.625 507.624 0.001 280.353-227.269 507.624-507.625 507.624zM805.139 244.985c-9.959 0-19.403 0.116-27.873 2.536-15.701-20.868-50.821-65.523-83.209-92.513-36.082-30.068-101.468-62.275-122.393-72.238-13.836-12.842-37.179-21.28-63.648-21.28-42.472 0-76.902 21.722-76.902 48.515 0 26.796 34.43 48.517 76.902 48.517 30.622 0 57.062-11.292 69.432-27.635 27.406 5.169 70.305 17.081 102.158 43.733 40.763 34.109 66.608 75.365 75.107 90.1-9.782 15.538-15.682 43.301-15.682 92.911 0 64.229 9.481 91.835 24.328 103.701h-1.406c-28.985 114.354-130.078 199.055-250.341 199.055-120.182 0-221.215-84.583-250.277-198.82 15.569-11.74 25.588-39.292 25.588-103.935 0-113.492-29.599-112.645-66.11-112.645s-66.11 50.433-66.11 112.645c0 59.805 27.354 108.716 61.907 112.411 32.776 136.453 152.905 237.342 296.102 237.342 143.177 0 263.292-100.859 296.089-237.283 34.809-3.237 62.448-52.351 62.448-112.469-0.002-62.213-29.599-112.646-66.111-112.647z"  horiz-adv-x="1024" />

    
    <glyph glyph-name="sousuo1" unicode="&#58939;" d="M908.488 74.652L783.7 199.44a401.635 401.635 0 0 0-41.665-48.894 403.103 403.103 0 0 0-35.653-31.68l123.159-123.159c10.855-10.854 25.117-16.282 39.376-16.283 14.262-0.002 28.518 5.427 39.376 16.283l0.188 0.188c10.524 10.524 16.316 24.508 16.316 39.382s-5.792 28.858-16.309 39.375zM932.967 99.132L803.1 228.999a399.223 399.223 0 0 1 24.478 48.428c20.821 49.225 31.377 101.505 31.377 155.386S848.398 538.976 827.578 588.2c-20.106 47.537-48.887 90.226-85.542 126.881s-79.344 65.435-126.88 85.542C565.931 821.443 513.651 832 459.769 832S353.607 821.443 304.382 800.623c-47.537-20.107-90.226-48.887-126.881-85.542S112.066 635.737 91.96 588.2c-20.82-49.225-31.377-101.504-31.377-155.386S71.139 326.652 91.96 277.427c20.106-47.537 48.887-90.226 85.542-126.881s79.344-65.435 126.881-85.542c49.225-20.82 101.504-31.377 155.386-31.377s106.162 10.557 155.386 31.377a398.173 398.173 0 0 1 62.736 33.395l127.172-127.172c17.605-17.605 40.727-26.407 63.852-26.406 23.126 0.001 46.256 8.805 63.864 26.413l0.188 0.188c17.057 17.056 26.45 39.734 26.45 63.855 0 24.121-9.393 46.799-26.45 63.855z m-24.674-103.425c-10.857-10.857-25.114-16.285-39.376-16.283-14.258 0.001-28.521 5.429-39.376 16.283L706.383 118.866a403.405 403.405 0 0 1 35.653 31.68 401.649 401.649 0 0 1 41.665 48.894l124.787-124.788c10.518-10.518 16.31-24.501 16.31-39.375s-5.792-28.858-16.316-39.382l-0.189-0.188zM459.769 797.381c101.891 0 194.152-42.018 260.37-109.635-9.882 11.269-20.787 22.236-32.792 32.835 185.143-163.447 180.59-397.176 31.458-546.309-64.921-64.921-146.438-99.985-230.202-104.893a367.842 367.842 0 0 0-28.834-1.133c-201.023 0-364.567 163.544-364.567 364.567S258.746 797.381 459.769 797.381zM224.978 650.65c-98.897-103.804-146.487-307.567-35.566-454.728 147.889-153.727 380.29-106.897 493.595 1.051 103.641 98.742 174.303 311.826 51.99 472.601-163.445 166.451-403.394 92.991-510.019-18.924z m96.27-358.446c-36.341 36.341-56.355 84.659-56.355 136.054 0 51.394 20.014 99.713 56.355 136.054 36.341 36.342 84.659 56.356 136.054 56.356s99.713-20.014 136.054-56.356c36.341-36.341 56.355-84.659 56.355-136.054 0-51.395-20.014-99.713-56.355-136.054s-84.659-56.355-136.054-56.355-99.713 20.014-136.054 56.355zM459.769 68.246c9.704 0 19.319 0.385 28.834 1.133-105.408-6.176-214.373 35.409-298.313 125.378 11.822-15.535 25.415-30.434 40.917-44.508-169.676 150.365-178.062 387.067-28.93 536.199C347.102 831.273 571.707 839.742 734.25 670.55a338.221 338.221 0 0 1-14.111 17.196C653.921 755.363 561.66 797.381 459.769 797.381c-201.023 0-364.567-163.544-364.567-364.567s163.544-364.568 364.567-364.568zM649.711 428.258c0 51.394-20.014 99.713-56.355 136.054-36.341 36.342-84.659 56.356-136.054 56.356s-99.713-20.014-136.054-56.356c-36.341-36.341-56.355-84.659-56.355-136.054 0-51.395 20.014-99.713 56.355-136.054s84.659-56.355 136.054-56.355 99.713 20.014 136.054 56.355 56.355 84.66 56.355 136.054z m-192.409-157.79c-87.006 0-157.791 70.784-157.791 157.791S370.295 586.05 457.302 586.05s157.791-70.784 157.791-157.791-70.785-157.791-157.791-157.791zM189.412 195.922C78.491 343.083 126.081 546.846 224.978 650.65c106.625 111.915 346.574 185.374 510.019 18.924-0.248 0.326-0.498 0.651-0.747 0.976C571.707 839.742 347.102 831.273 202.277 686.448 53.145 537.316 61.531 300.614 231.207 150.25c-15.502 14.074-29.095 28.973-40.917 44.508a439.694 439.694 0 0 0-7.684 8.445 344.242 344.242 0 0 1 6.806-7.281zM734.997 669.574c122.313-160.775 51.651-373.859-51.99-472.601-113.305-107.948-345.706-154.778-493.595-1.051a343.975 343.975 0 0 0-6.805 7.28 445.765 445.765 0 0 1 7.684-8.445c83.939-89.97 192.905-131.554 298.313-125.378 83.764 4.908 165.281 39.972 230.202 104.893 149.132 149.132 153.685 382.862-31.458 546.309 12.005-10.598 22.91-21.566 32.792-32.835a337.686 337.686 0 0 0 14.111-17.196l0.746-0.976z"  horiz-adv-x="1024" />

    
    <glyph glyph-name="jianli2" unicode="&#59317;" d="M906.54475-127.296484H245.559178a31.978015 31.978015 0 0 0 0 63.956031h651.967772V832.04397H254.576978v-791.83961a31.978015 31.978015 0 0 0-63.95603 0V839.462869c0 31.210543 24.623072 56.537131 54.93823 56.537131h660.985572c30.315158 0 54.93823-25.326588 54.93823-56.537131v-910.158266a55.769658 55.769658 0 0 0-54.93823-56.601087zM222.407095-127.296484H110.03635c-27.053401 0-47.51933 24.623072-47.51933 57.240647V631.349947c0 32.617575 20.401974 57.240647 47.51933 57.240647h25.198676a31.978015 31.978015 0 0 0 0-63.95603h-8.506152L126.47305-63.340453h95.934045a31.978015 31.978015 0 0 0 0-63.956031zM751.963025 414.986697h-351.758166c-35.239773 0-63.95603 28.716258-63.95603 63.95603v95.934045c0 35.239773 28.716258 63.95603 63.95603 63.95603h351.758166c35.303729 0 63.95603-28.716258 63.956031-63.95603v-95.934045c0-35.239773-28.652302-63.95603-63.956031-63.95603z m0 63.95603v-31.978015 31.978015z m-351.822122 95.934045v-95.934045h351.758166l0.063956 95.934045H400.140903zM767.824121 256.439698H384.08794a31.978015 31.978015 0 0 0 0 63.95603h383.736181a31.978015 31.978015 0 0 0 0-63.95603zM767.824121 128.527637H384.08794a31.978015 31.978015 0 0 0 0 63.95603h383.736181a31.978015 31.978015 0 0 0 0-63.95603z"  horiz-adv-x="1024" />

    
    <glyph glyph-name="arrow" unicode="&#58883;" d="M512.133 271.019l-292.16 292.155c-12.27 12.28-32.186 12.28-44.457 0-12.281-12.27-12.281-32.186 0-44.457l314.388-314.388c12.27-12.28 32.186-12.28 44.457 0l314.387 314.388c6.14 6.136 9.211 14.183 9.211 22.228s-3.071 16.092-9.211 22.228c-12.27 12.28-32.186 12.28-44.457 0l-292.159-292.155z"  horiz-adv-x="1024" />

    
    <glyph glyph-name="jifen" unicode="&#58958;" d="M512.648533 208.128c-46.301867 0-84.002133 19.899733-114.466133 43.844267l-25.821867-32.699734c30.429867-25.122133 77.312-46.08 124.893867-50.244266v-64.290134a20.189867 20.189867 0 1 1 40.362667 0h0.187733v64.836267c69.495467 8.192 113.834667 50.261333 113.834667 112.162133 0 141.994667-207.8208 112.810667-207.8208 212.138667 0 38.536533 30.429867 65.416533 76.765866 65.416533 41.693867 0 64.187733-13.4656 91.3408-37.393066l29.115734 28.637866c-25.821867 24.541867-56.2688 44.3392-103.236267 48.469334v64.256h-0.187733a20.189867 20.189867 0 0 1-40.3456 0v-64.853334c-62.7712-8.226133-106.376533-49.698133-106.376534-106.888533 0-128.512 207.803733-102.263467 207.803734-213.282133 0-42.666667-29.115733-70.109867-86.050134-70.109867M512-86.101333C252.791467-86.101333 41.8816 124.808533 41.8816 384 41.8816 643.208533 252.791467 854.1184 512 854.1184c259.208533 0 470.1184-210.909867 470.1184-470.1184 0-259.191467-210.909867-470.101333-470.1184-470.101333M512 896C229.239467 896 0 666.760533 0 384c0-282.743467 229.239467-512 512-512 282.760533 0 512 229.256533 512 512C1024 666.760533 794.760533 896 512 896M888.661333 567.552a22.050133 22.050133 0 1 1-39.645866-19.319467A371.1488 371.1488 0 0 0 886.818133 384c0-206.677333-168.157867-374.818133-374.818133-374.818133a22.050133 22.050133 0 1 1 0-44.066134c230.980267 0 418.901333 187.938133 418.901333 418.9184 0 64.341333-14.199467 126.088533-42.24 183.517867M512 758.801067a372.957867 372.957867 0 0 0 261.597867-106.325334 22.050133 22.050133 0 0 1 30.754133 31.556267A416.768 416.768 0 0 1 512 802.8672a22.050133 22.050133 0 1 1 0-44.066133M366.250667 38.570667A374.3232 374.3232 0 0 0 137.147733 384c0 146.0224 85.794133 279.773867 218.538667 340.770133a22.050133 22.050133 0 0 1-18.397867 40.106667C188.928 696.695467 93.098667 547.191467 93.098667 384.017067c0-168.823467 100.471467-320.341333 256-386.048a22.0672 22.0672 0 0 1 28.893866 11.741866 21.981867 21.981867 0 0 1-11.741866 28.842667"  horiz-adv-x="1024" />

    
    <glyph glyph-name="dianhua" unicode="&#58889;" d="M748.60575351-37.611342130000025h-0.58004764a214.6705252 214.6705252 0 0 0-33.95917913 3.5857521 200.96029797 200.96029797 0 0 0-42.23804756 12.76105792C415.65732498 97.69805869000004 225.66685724 287.68935039999997 106.96792514 543.33236407c-23.46558152 54.7354476-26.89313873 134.41213862 20.24895191 181.60696034L176.89008584 774.6125332A107.46709194 107.46709194 0 0 0 257.25311228 805.77693548a106.51792264 106.51792264 0 0 0 76.93464604-38.59956353l72.71693758-88.27277317c36.91215088-44.71643464 33.80098425-109.36460742-7.1715034-150.33709506l-27.78957695-27.84230887c73.77157068-104.93597297 152.13079468-183.29519695 256.75037786-256.85584084l27.89504077 27.89503994a111.52742871 111.52742871 0 0 0 150.38982615 7.22423529l88.22004208-72.76967029a106.57065371 106.57065371 0 0 0 7.54062506-157.29767165l-39.70692856-39.70692856a24.04562997 24.04562997 0 0 0-33.74825235 0 23.94016699 23.94016699 0 0 0 0 33.85371616l39.60146475 39.65419665a58.53212568 58.53212568 0 0 1-4.16579974 86.74355538l-88.16731018 72.76966948a63.96348533 63.96348533 0 0 1-86.26814676-4.16662373l-41.97438886-41.97438886a23.83470318 23.83470318 0 0 0-30.32069595-2.84750875c-123.55024328 84.2124364-212.29760193 172.95979422-296.7736962 296.87915918a23.94016699 23.94016699 0 0 0 2.79477686 30.32069595l41.97438967 41.92165777a63.96348533 63.96348533 0 0 1 4.16579975 86.21623883L297.38189441 736.80312011a57.68841934 57.68841934 0 0 1-42.39541845 21.19812122c-16.61046789 0.79097443-32.48269327-5.27316476-44.29458189-17.08505255l-49.7259407-49.67320963C127.37507193 657.60101377 136.28671988 596.01127734 150.57699558 562.84224865c115.16591189-248.04883273 292.18521972-425.12087165 540.91956308-540.6559052a167.10658181 167.10658181 0 0 1 57.63651141-12.07554648 23.88743509 23.88743509 0 0 0-0.52731656-47.7221391z"  horiz-adv-x="1024" />

    
    <glyph glyph-name="shouye1" unicode="&#58894;" d="M1012.075622 419.1744l-449.0752 443.34592c-2.26816 2.69824-7.00416 7.0912-13.6192 11.45856-11.84768 7.80288-24.43776 11.776-37.42208 11.776-13.95712 0-26.86464-4.00896-38.3744-11.88352-7.6288-5.248-11.70432-9.96864-13.46048-12.30848L11.898982 419.13856A39.5008 39.5008 0 0 1 0.000102 390.79936c0-10.6752 4.224-20.74624 11.89888-28.30336 14.11584-14.00832 34.72384-10.00448 54.35392 9.32864l30.1312 29.79328 416.83456 403.7632 2.5344-2.4832 441.984-434.5856c13.54752-8.86272 25.71264-13.58336 35.57376-13.58336 7.34208 0 13.48096 2.55488 18.7648 7.76704a39.6288 39.6288 0 0 1 11.91424 28.30336 39.552 39.552 0 0 1-11.91424 28.37504zM844.559462 442.0864c-18.51392 0-33.65888-14.93504-33.7664-33.26976v-413.5936c0-22.58944-18.62144-40.96512-41.53344-40.96512h-102.9632v230.54336c0 56.6784-46.63808 102.784-103.97184 102.784H461.634662c-57.33376 0-103.97184-46.1056-103.97184-102.784v-230.54336h-102.9632c-22.912 0-41.5744 18.37056-41.5744 40.96512v413.4912c-0.03584 18.4064-15.14496 33.37728-33.69472 33.37728-18.5344 0-33.67936-14.96576-33.73056-33.33632v-418.48832c0-56.6784 46.63808-102.78912 103.97184-102.78912h175.40608v292.3264c0 22.55872 18.65728 40.89344 41.5744 40.89344h90.6752c22.93248 0 41.55392-18.33472 41.55392-40.89344v-292.3264h175.42144c57.3184 0 103.99232 46.11072 103.99232 102.78912V408.7808c-0.14848 18.33984-15.2576 33.3056-33.73568 33.3056z"  horiz-adv-x="1024" />

    
    <glyph glyph-name="shanglashuangjiantou" unicode="&#58893;" d="M534.883 672.161L876.65 339.223c9.963-9.736 9.963-25.495 0-35.232-9.963-9.509-25.949-9.509-35.934 0L515.635 620.717 195.92 309.312c-9.736-9.509-25.27-9.509-35.005 0-9.51 9.261-9.51 24.567 0 34.078l332.009 323.45c1.381 1.381 3.012 1.857 4.415 2.785 0.68 0.929 0.906 1.856 1.631 2.536 9.962 9.51 25.948 9.51 35.913 0zM534.883 428.706L876.65 95.769c9.963-9.736 9.963-25.495 0-35.232-9.963-9.509-25.949-9.509-35.934 0L515.635 377.263 195.92 65.857c-9.736-9.509-25.27-9.509-35.005 0-9.51 9.261-9.51 24.567 0 34.078l332.009 323.449c1.381 1.382 3.012 1.857 4.415 2.786 0.68 0.928 0.906 1.857 1.631 2.535 9.962 9.512 25.948 9.512 35.913 0.001z"  horiz-adv-x="1024" />

    
    <glyph glyph-name="jineng" unicode="&#58907;" d="M676.643 526.557l-74.29 8.031-2.008 2.008-32.125 68.267c-6.024 12.047-18.071 20.078-30.118 20.078s-24.094-8.031-30.118-20.078l-32.125-66.259-2.008-2.008-74.29-10.039c-14.055-2.008-24.094-10.039-28.11-22.086-4.016-12.047 0-26.102 10.039-34.133l54.212-50.196s0-2.008 2.008-2.008l-16.063-76.298c-2.008-10.039 0-22.086 6.024-28.11 10.039-12.047 26.102-14.055 42.165-6.024l64.251 36.141h2.008l66.259-36.141c6.024-4.016 12.047-4.016 18.071-4.016 10.039 0 18.071 4.016 24.094 12.047 6.024 8.031 8.031 18.071 6.024 28.11l-10.039 70.275v2.008l54.212 52.204c10.039 10.039 14.055 22.086 10.039 34.133s-14.055 22.086-28.11 24.094zM604.361 454.275c-12.047-12.047-18.071-32.125-16.063-48.188l6.024-34.133-32.125 16.063c-10.039 6.024-20.078 6.024-26.102 6.024-6.024 0-16.063-2.008-26.102-6.024l-28.11-18.071 6.024 34.133c4.016 16.063-4.016 36.141-16.063 48.188l-26.102 24.094 36.141 4.016c16.063 2.008 34.133 14.055 42.165 30.118l16.063 32.125 16.063-32.125c8.031-16.063 24.094-28.11 42.165-30.118l36.141-4.016-30.118-22.086zM987.859 18.573l-102.4 289.129c22.086 50.196 34.133 102.4 34.133 156.612 0 210.824-170.667 381.49-381.49 381.49s-381.49-170.667-381.49-381.49c0-56.22 12.047-110.431 36.141-162.635l-108.424-275.075c-4.016-10.039-2.008-20.078 4.016-28.11 6.024-6.024 16.063-10.039 26.102-6.024l156.612 36.141 88.345-134.525c4.016-8.031 14.055-12.047 22.086-12.047h2.008c10.039 2.008 18.071 8.031 22.086 16.063l74.29 188.737c18.071-2.008 36.141-4.016 56.22-4.016 18.071 0 38.149 2.008 56.22 4.016l64.251-184.722c4.016-10.039 12.047-16.063 22.086-18.071h4.016c8.031 0 16.063 4.016 22.086 10.039l94.369 130.51 154.604-44.173c10.039-2.008 20.078 0 26.102 8.031 8.031 10.039 10.039 20.078 8.031 30.118zM377.475-33.631l-72.282 106.416c-4.016 8.031-14.055 12.047-22.086 12.047h-6.024l-126.494-30.118 74.29 188.737c2.008-2.008 4.016-4.016 4.016-6.024 0-2.008 2.008-2.008 2.008-4.016 2.008-2.008 2.008-4.016 4.016-4.016 0-2.008 2.008-2.008 2.008-4.016 2.008-2.008 2.008-4.016 4.016-4.016l10.039-10.039c2.008-2.008 2.008-4.016 4.016-4.016l16.063-16.063c2.008-2.008 4.016-4.016 6.024-4.016l10.039-10.039c2.008-2.008 4.016-4.016 8.031-6.024l2.008-2.008c2.008-2.008 4.016-4.016 6.024-4.016 0 0 2.008 0 2.008-2.008 2.008-2.008 4.016-4.016 8.031-6.024 2.008-2.008 6.024-4.016 8.031-6.024 2.008-2.008 4.016-4.016 8.031-4.016h2.008c6.024-4.016 12.047-8.031 18.071-10.039 2.008-2.008 6.024-4.016 8.031-4.016 10.039-4.016 18.071-10.039 28.11-14.055l30.118-12.047c4.016-2.008 8.031-2.008 10.039-4.016l-48.188-136.533zM606.369 143.059c-44.173-10.039-90.353-10.039-134.525 0-98.384 20.078-180.706 82.322-224.878 172.675-24.094 46.18-36.141 96.376-36.141 148.58 0 180.706 146.573 329.286 329.286 329.286 180.706 0 329.286-146.573 329.286-329.286 0-50.196-12.047-98.384-34.133-142.557-2.008-2.008-2.008-6.024-4.016-8.031-48.188-88.345-130.51-150.588-224.878-170.667zM795.106 82.824c-10.039 2.008-22.086-2.008-28.11-10.039l-76.298-104.408-46.18 130.51h4.016c2.008 0 6.024 2.008 8.031 2.008h2.008l18.071 6.024h2.008c2.008 0 4.016 2.008 8.031 4.016h2.008c4.016 2.008 6.024 2.008 10.039 4.016 2.008 2.008 6.024 2.008 8.031 4.016 0 0 2.008 0 2.008 2.008 2.008 2.008 4.016 2.008 6.024 4.016 0 0 2.008 0 2.008 2.008 2.008 2.008 6.024 4.016 8.031 4.016 2.008 2.008 6.024 4.016 8.031 4.016 0 0 2.008 0 2.008 2.008 2.008 2.008 4.016 2.008 6.024 4.016 0 0 2.008 0 2.008 2.008 2.008 2.008 6.024 4.016 8.031 6.024 2.008 2.008 4.016 4.016 8.031 6.024l2.008 2.008c2.008 2.008 4.016 4.016 6.024 4.016 0 0 2.008 0 2.008 2.008 2.008 2.008 6.024 4.016 8.031 6.024h2.008l16.063 16.063c2.008 2.008 4.016 4.016 8.031 6.024l16.063 16.063c2.008 2.008 4.016 6.024 6.024 8.031l6.024 6.024s0 2.008 2.008 2.008c2.008 2.008 4.016 6.024 6.024 8.031 2.008 2.008 4.016 6.024 6.024 8.031 2.008 2.008 2.008 4.016 4.016 4.016l70.275-198.776-124.486 38.149z"  horiz-adv-x="1024" />

    
    <glyph glyph-name="shoucang" unicode="&#59200;" d="M512 90.112l-354.304-154.112c-19.456-8.704-40.96 5.632-40.96 27.136v844.8c0 19.456 15.872 35.84 35.84 35.84h719.872c19.456 0 35.84-15.872 35.84-35.84v-844.8c0-20.992-21.504-35.328-40.96-27.136L512 90.112z m344.576-93.184V769.024c0 12.288-10.24 22.528-22.528 22.528H189.952c-12.288 0-22.528-10.24-22.528-22.528v-772.096l344.576 151.04 344.576-151.04zM512 270.336l-147.456-69.632c-13.824-6.656-29.184 4.608-27.136 19.456l20.48 162.816-111.104 119.296c-10.24 10.752-4.608 28.672 10.24 31.744l159.232 31.232 78.848 142.336c7.168 13.312 26.112 13.312 33.28 0l78.848-143.36 159.232-30.208c14.848-3.072 20.48-20.992 10.24-31.744L665.6 381.952l20.48-161.792c2.048-14.848-13.312-26.112-27.136-19.456L512 270.336z m115.712 2.048l-14.336 113.152c-1.024 9.216 2.048 18.432 8.192 25.088l77.824 83.968-110.592 21.504c-9.216 1.536-16.896 7.68-21.504 15.36L512 631.808 457.728 531.456c-4.608-8.192-12.288-13.824-21.504-15.872l-111.104-21.504 77.824-83.968c6.144-6.656 9.216-15.872 8.192-25.088l-14.336-113.152 102.4 48.128c8.192 4.096 17.92 4.096 26.624 0l101.888-47.616z"  horiz-adv-x="1024" />

    
    <glyph glyph-name="jifen1" unicode="&#58934;" d="M512.683 866.028c-266.128 0-481.862-215.74-481.862-481.862s215.734-481.862 481.862-481.862c266.122 0 481.863 215.74 481.863 481.862S778.806 866.028 512.683 866.028zM206.961 164.206a14.988 14.988 0 0 0-8.294-2.5c-4.882 0-9.676 2.367-12.573 6.75-42.476 64.188-64.924 138.772-64.924 215.71 0 35.22 5.036 70.975 14.977 106.268 2.257 8.008 10.595 12.691 18.573 10.41 8.006-2.249 12.668-10.564 10.41-18.572-9.183-32.638-13.844-65.644-13.844-98.106 0-71.013 20.72-139.847 59.924-199.095 4.589-6.926 2.684-16.278-4.249-20.865z m625.724-5.178c-73.438-104.172-193.066-166.375-320.002-166.375-68.614 0-136.458 18.353-196.19 53.057-7.19 4.176-9.632 13.381-5.456 20.587 4.183 7.176 13.397 9.617 20.587 5.44 55.144-32.026 117.753-48.968 181.058-48.968 117.157 0 227.58 57.424 295.385 153.612 4.78 6.794 14.161 8.44 20.97 3.632 6.795-4.794 8.442-14.19 3.648-20.985z m-288.87 177.537l-86.07 22.366c-26.389 6.486-45.778 17.427-58.174 32.838-12.396 15.396-18.596 35.896-18.596 61.526 0 32.748 11.522 59.497 34.572 80.247 19.816 17.845 47.27 27.97 82.255 30.47-0.022 0.294-0.176 0.552-0.176 0.853V594.98c0 8.323 6.741 15.059 15.058 15.059h30.117c8.308 0 15.058-6.735 15.058-15.059v-30.116c0-1.545-0.456-2.957-0.882-4.369 21.382-4.66 39.645-13.234 54.792-25.734 24.16-19.94 37.513-48.88 40.056-86.82h-70.57c-5.25 36.63-28.616 54.953-70.1 54.953-18.918 0-34.02-3.72-45.3-11.177-11.132-7.47-16.69-17.675-16.69-30.646 0-9.411 2.86-17.264 8.58-23.587 5.883-6.323 15.265-11.117 28.139-14.352l85.343-21.397c35.144-8.602 59.217-20.676 72.26-36.234 13.176-15.573 19.78-35.924 19.78-61.04 0-34.543-12.074-62.586-36.249-84.145-17.427-15.558-40.69-25.381-69.615-29.616 0.118-0.794 0.456-1.485 0.456-2.294v-30.116c0-8.324-6.75-15.06-15.058-15.06h-30.117c-8.316 0-15.058 6.736-15.058 15.06v30.116c0 0.411 0.198 0.735 0.228 1.147-31.742 3.235-58.52 12.941-80.167 29.292-27.02 20.587-40.527 50.585-40.527 89.982h70.57c2.067-39.234 27.182-58.852 75.35-58.852 46.409 0 69.614 15.162 69.614 45.484 0.001 19.297-16.292 32.988-48.879 41.105z m338.676-36.851c-0.912 0-1.839 0.074-2.779 0.25-8.176 1.53-13.56 9.397-12.03 17.573 4.294 23.087 6.397 44.88 6.397 66.629 0 199.271-162.126 361.396-361.396 361.396-105.502 0-205.536-46.167-274.444-126.656-5.412-6.316-14.912-7.051-21.235-1.647-6.316 5.412-7.05 14.918-1.646 21.234C290 725.674 398.37 775.68 512.683 775.68c215.888 0 391.513-175.632 391.513-391.513 0-23.293-2.338-47.572-6.926-72.16-1.353-7.249-7.676-12.292-14.779-12.292z"  horiz-adv-x="1024" />

    
    <glyph glyph-name="bitian" unicode="&#58920;" d="M799.2 206.1h-575C101.3 206.1 1.4 306 1.4 428.9s99.9 222.8 222.8 222.8h575c122.9 0 222.8-99.9 222.8-222.8S922 206.1 799.2 206.1z m-575 431.2c-114.9 0-208.4-93.5-208.4-208.4s93.5-208.4 208.4-208.4h575c114.9 0 208.4 93.5 208.4 208.4s-93.5 208.4-208.4 208.4h-575zM257 478.1c-10.2-51.9-24.4-96.2-42.5-133l-15 9.8c18.3 37 31.7 79.3 40.2 126.8l17.3-3.6z m178.5 85c-29.4-100.5-73.1-176.3-131.1-227.5v-7.8c0-10.5 5.9-15.7 17.7-15.7h60.1c10 0 17.2 3.1 21.6 9.2 5.4 8.1 9.2 31.6 11.1 70.6l16.7-5.6c-2.4-42.9-7.4-69.4-15-79.4-6.8-8.1-17.1-12.1-31.1-12.1h-68.6c-19.4 0-29.4 8.7-30.1 26.2-19.4-14.8-39.4-26.9-60.1-36.3l-10.1 15c25.9 12 49.3 26.7 70 44.1V512.4h18v-152.7c51.7 50.3 89.9 120.5 114.7 210.5l16.2-7.1z m-127.8 16.3c26.8-21.1 48.8-42 66-62.4l-12.1-12.4c-16.3 19.8-38.4 40.9-66 63.1l12.1 11.7z m134.7-102c22.2-39.9 41.1-81.5 56.6-124.9l-16-7.2c-16.8 47.3-36 89.4-57.5 126.5l16.9 5.6zM529 499h38.2v81.7h17.3V499h35.3v-17h-35.3v-108.9c9.2 3.1 20.9 7.4 35.3 13.1v-17.7c-27.2-11.1-56.9-20.3-88.9-27.5l-4.3 17.3c13.1 2.4 26.6 5.6 40.5 9.5V482H529v17z m172.3-171.9c-19.6-17.2-43.3-32.1-70.9-44.8l-10.5 13.4c26.8 11.6 49.9 25.5 69.3 41.8l12.1-10.4z m-69.7 227.5h82.7c1.3 9.2 2.3 18.3 2.9 27.5l17.6-2.3-2.9-25.2h82.4v-15.4h-84.7c-1.1-7.4-2.6-15.8-4.6-25.2h69.3v-152H825v-16.3H620V362h31.7V514h55.9c2.4 12.2 3.9 20.6 4.6 25.2h-80.7v15.4z m37.3-79.8h108.5v24.8H668.9v-24.8z m0-37.3h108.5v23.9H668.9v-23.9z m0-37.2h108.5v24.2H668.9v-24.2z m0-38.3h108.5v25.2H668.9V362z m87.6-26.1c22.9-11.3 44.2-25.1 64.1-41.2l-10.8-12.4c-21.6 17.4-43 31.9-64.4 43.5l11.1 10.1z"  horiz-adv-x="1024" />

    
    <glyph glyph-name="zanwushoucang" unicode="&#59086;" d="M1145.757564-95.898626h-465.70453a16.014096 16.014096 0 0 1-16.052411-16.048928 16.015837 16.015837 0 0 1 16.052411-16.052411h465.70453a16.015837 16.015837 0 0 1 16.052411 16.052411 16.014096 16.014096 0 0 1-16.052411 16.048928z m637.498592 65.726585H1441.838076c-8.890914 0-16.048928-7.375715-16.048928-16.26837 0-8.892656 7.156272-16.270112 16.048928-16.270113h341.41808c8.890914 0 16.052411 7.375715 16.052411 16.270113 0 9.110357-7.159755 16.268371-16.052411 16.26837z m170.702074 0h-74.610534c-8.894398 0-16.052411-7.375715-16.052411-16.26837 0-8.892656 7.156272-16.270112 16.052411-16.270113h74.610534c8.904847 0 16.061119 7.375715 16.061119 16.270113 0 9.110357-7.156272 16.268371-16.061119 16.26837zM1317.117966-95.898626H1242.066805a16.014096 16.014096 0 0 1-16.052411-16.048928 16.015837 16.015837 0 0 1 16.052411-16.052411h75.051161a16.015837 16.015837 0 0 1 16.052411 16.052411 16.014096 16.014096 0 0 1-16.052411 16.048928z m-484.358905 163.768727h49.021071c9.108616 0 16.266629 7.375715 16.266629 16.270113 0 8.890914-7.375715 16.268371-16.266629 16.26837h-49.021071c-8.894398 0-16.270112-7.375715-16.270112-16.26837-0.21596-8.894398 7.156272-16.270112 16.270112-16.270113z m734.671671 16.268371c0-8.892656 7.375715-16.270112 16.266629-16.270112h119.733884c9.112099 0 16.270112 7.375715 16.270112 16.270112 0 8.890914-7.372231 16.268371-16.270112 16.26837h-119.733884c-8.889173 0-16.266629-7.158013-16.266629-16.26837z m-638.583614 0c0-8.892656 7.373973-16.270112 16.26837-16.270112h152.486584c9.112099 0 16.270112 7.375715 16.270112 16.270112 0 8.890914-14.533728 18.654375-23.428125 18.654375l6.942054-2.386005h-152.272366c-8.892656 0-16.266629-7.158013-16.266629-16.26837zM1039.906046 34.8997c-8.892656 0-16.266629-7.375715-16.266629-16.266629 0-8.894398 7.373973-16.271854 16.266629-16.271854h598.456941c8.889173 0 16.266629 7.375715 16.266629 16.271854 0 8.889173-7.375715 16.266629-16.266629 16.266629h-598.456941zM1703.575798 619.056289c-8.603549 24.403427-30.276132 41.969296-56.565721 45.837409l-185.420412 27.169102-80.52678 164.684814c-11.642657 23.842628-36.791492 39.252386-64.079023 39.252386-27.22135 0-52.338836-15.409757-64.012843-39.252386l-80.55987-164.700488-185.404737-27.203934c-26.303522-3.784517-47.993522-21.33297-56.597071-45.870501-8.586133-24.777873-2.189203-51.692699 16.682874-70.240836l136.087592-133.900132-31.564923-185.540583c-4.430654-25.862895 7.076158-52.38586 29.393137-67.609265 21.824104-14.680023 51.083136-16.291011 74.586151-3.93952l161.424522 85.683685 161.525535-85.699359a72.990837 72.990837 0 0 1 33.94222-8.434613c14.491929 0 28.527557 4.27565 40.661347 12.438572 22.214224 15.157224 33.703619 41.664514 29.274707 67.525668l-31.547507 185.557999 136.103268 133.896649c18.835502 18.569036 25.234174 45.499538 16.597534 70.345333z m-40.440163-46.142192l-148.731675-146.336962 34.518693-203.03853c2.239709-13.030719-3.495409-25.962167-14.84896-33.717552-11.625241-7.807634-27.306689-8.640123-39.675596-2.123021L1316.985603 281.851161l-177.274906-94.102623c-12.508237-6.585024-28.205359-5.702028-39.677338 2.035941-11.471979 7.82505-17.208839 20.773913-14.967389 33.806375l34.534367 203.003697-148.712517 146.336962c-9.43778 9.26536-12.661498 22.656593-8.436355 34.856565 4.395821 12.49082 15.646616 21.48449 29.443643 23.469924l203.15696 29.818089 88.416268 180.770316c6.008551 12.285311 19.176858 20.22879 33.532942 20.228789 14.408332 0 27.576638-7.926063 33.58519-20.213115L1438.98532 661.091766 1642.091773 631.343341c13.779611-2.035941 25.080913-11.064443 29.461059-23.487341 4.24256-12.267894 1.018841-25.643452-8.417197-34.941903zM1314.726736 624.470951c-34.755551 0-62.758884-10.606399-83.1897-31.498742C1197.427622 558.096487 1198.155615 507.440045 1198.206122 505.283933c0.203768-9.230528 7.757127-16.562702 16.954564-16.562702h0.323939c9.350699 0.168936 16.783887 7.908647 16.648042 17.259346 0 0.388379-0.306523 38.93193 23.825212 63.418953 13.798769 14.018212 33.586931 21.111785 58.753183 21.111786 9.369857 0 16.971981 7.602124 16.97198 16.970239 0 9.369857-7.588191 16.989397-16.956306 16.989396z"  horiz-adv-x="2821" />

    
    <glyph glyph-name="youxiang1" unicode="&#59037;" d="M511.4384 830.9112C264.986 830.9112 65.1158 631.0382999999999 65.1158 384.4608c0-246.5901 199.8702-446.463 446.3226-446.463 246.7197 0 446.5908 199.8729 446.5908 446.463 0 246.5775-199.8702 446.4504-446.5908 446.4504m268.0533-565.5213c0-59.6025-28.6218-89.2638-89.262-89.2638H333.0422c-59.4666 0-89.2665 29.6613-89.2665 89.2638V503.5191c0 59.6025 31.6206 89.2629 89.2665 89.2629h357.1875c60.6411 0 89.262-30.7008 89.262-89.2629v-238.1292zM535.13 306.2445c-0.7866-1.0395-1.053-2.079-1.9584-2.8512-5.7294-5.8626-13.4046-8.5941-21.213-8.5941-7.4088 0-15.0966 2.7315-20.8134 8.5941l-39.2949 39.2949c-0.2664-0.5193-0.2664-0.9063-0.5193-1.1727L345.4037 235.59540000000004h332.5941L571.1732 342.42089999999996 535.13 306.2445z m142.8669 226.9494H345.4037l166.0347-166.3074 166.5585 166.3074zM410.3342 384.3276L303.2423 491.1531v-213.5313l105.921 105.9192c0.261 0.2673 0.7812 0.5202 1.1709 0.7866m309.5694-106.7049V491.1531l-106.704-106.6923 106.704-106.8381z"  horiz-adv-x="1024" />

    
    <glyph glyph-name="feather-blur-light-b" unicode="&#59127;" d="M981.333 832c0 12.8-12.8 21.333-21.333 21.333-4.267 0-8.533-4.267-12.8-4.267-93.867-93.867-204.8-170.667-328.533-217.6l-4.267-4.267c-4.267 0-8.533-4.267-8.533-8.533l-21.333-34.133-4.267 8.533c-4.267 8.533-17.067 12.8-29.867 8.533-59.733-25.6-119.467-59.733-166.4-102.4-4.267-4.267-4.267-8.533-4.267-17.067v-51.2c-4.267 4.267-8.533 8.533-12.8 8.533-8.533 8.533-21.333 8.533-29.867-4.267-46.933-59.733-76.8-128-98.133-204.8-4.267-12.8 4.267-21.333 12.8-25.6 8.533 0 12.8 0 21.333 4.267 68.267 59.733 119.467 93.867 162.133 128 93.867 68.267 187.733 149.333 268.8 230.4 8.533 8.533 21.333 8.533 29.867 0 8.533-8.533 8.533-21.333 0-29.867-85.333-85.333-174.933-166.4-273.067-234.667-51.2-38.4-209.067-170.667-217.6-174.933-55.467-51.2-119.467-110.933-192-183.467-8.533-8.533-8.533-21.333 0-29.867 8.533-8.533 21.333-8.533 29.867 0 59.733 59.733 115.2 115.2 166.4 162.133 17.067-4.267 29.867-4.267 46.933-4.267 81.067 0 217.6 38.4 405.333 230.4 290.133 294.4 281.6 520.533 281.6 529.067z"  horiz-adv-x="1024" />

    
    <glyph glyph-name="baike" unicode="&#58918;" d="M512 896C227.555556 896 0 668.444444 0 384s227.555556-512 512-512 512 227.555556 512 512S796.444444 896 512 896z m20.686869-362.020202c108.606061 103.434343 248.242424 72.40404 248.242424 72.40404l113.777778-227.555555c-258.585859 72.40404-362.020202-51.717172-362.020202-51.717172V533.979798z m0-232.727273c93.090909 108.606061 362.020202 62.060606 362.020202 62.060606v-31.030303h-20.686869c-62.060606-72.40404 20.686869-118.949495 20.686869-118.949495v-25.858586h-362.020202v113.777778zM268.929293 606.383838S403.393939 637.414141 517.171717 533.979798v-206.868687s-103.434343 124.121212-362.020202 51.717172l113.777778 227.555555zM155.151515 213.333333s82.747475 46.545455 20.686869 118.949495H155.151515v31.030303s268.929293 46.545455 362.020202-62.060606v-108.60606H155.151515v20.686868z m444.767677-98.262626s-31.030303-41.373737-72.40404-41.373737c-41.373737 0-72.40404 41.373737-72.404041 41.373737H134.464646v41.373737h325.818182c0-36.20202 62.060606-51.717172 62.060606-51.717171s62.060606 10.343434 62.060606 51.717171h325.818182v-41.373737h-310.30303z"  horiz-adv-x="1024" />

    
    <glyph glyph-name="woman" unicode="&#59095;" d="M747.61216 540.7488000000001c0 129.89952-105.70752 235.5968-235.6224 235.5968S276.38784 670.6432 276.38784 540.7488000000001c0-123.52 95.53408-225.12128 216.59648-234.83392v-125.09184H379.27936c-7.69536 0-13.93664-9.22112-13.93664-20.58752 0-11.37664 6.24128-20.58752 13.93664-20.58752h113.70496v-130.3552c0-9.74848 9.22112-17.6384 20.58752-17.6384s20.58752 7.88992 20.58752 17.6384v130.3552h110.55616c7.69536 0 13.93664 9.21088 13.93664 20.58752 0 11.3664-6.24128 20.58752-13.93664 20.58752h-110.55616v125.37344c119.55712 11.20768 213.4528 112.11264 213.4528 234.55232z m-423.60832 0c0 103.64416 84.3264 187.98592 187.98592 187.98592 103.6544 0 188.00128-84.34176 188.00128-187.98592 0-103.65952-84.34176-187.98592-188.00128-187.98592s-187.98592 84.3264-187.98592 187.98592z"  horiz-adv-x="1024" />

    
    <glyph glyph-name="wenzhangxiangqing-zancai-" unicode="&#58992;" d="M436.8 659.52c-2.08-20.8-23.04-196.96-152-196.96h-118.88v-396.16h520.32a85.12 85.12 0 0 1 83.2 65.76v1.6c10.4 33.92 45.44 151.04 64 234.4a104.8 104.8 0 0 1-14.56 91.84 98.24 98.24 0 0 1-72.64 33.44h-156.16a5.12 5.12 0 0 0-4.8 6.72A400 400 0 0 1 605.28 656a84.32 84.32 0 1 1-168.48 2.88z m-145.6-535.68a5.12 5.12 0 0 0-5.12-5.12H224a5.12 5.12 0 0 0-5.12 5.12V405.28a5.12 5.12 0 0 0 5.12 5.12h62.56a5.12 5.12 0 0 0 5.12-5.12z m197.76 533.6a33.28 33.28 0 0 0 32 34.24 34.08 34.08 0 0 0 32-37.28c2.4-33.12 0-136.64-37.44-165.92a26.08 26.08 0 0 1 16-46.88h216a48 48 0 0 0 32-13.6l0.96-1.28a60.64 60.64 0 0 0 3.68-48c-12-52.64-34.4-134.08-62.88-228.64l-1.44-4.96a33.44 33.44 0 0 0-32.96-27.04H348.32a5.12 5.12 0 0 0-5.12 5.12V416.96a5.12 5.12 0 0 0 3.36 4.8c101.44 38.08 136.96 166.08 142.4 235.68z"  horiz-adv-x="1024" />

    
    <glyph glyph-name="wenzhangxiangqing-zancai-1" unicode="&#58993;" d="M496 42.88a84.32 84.32 0 0 1 125.6 76 400 400 0 0 1-20 156 5.12 5.12 0 0 0 4.8 6.72h157.28a98.24 98.24 0 0 1 72.64 33.44 104.8 104.8 0 0 1 14.56 91.84C832 490.88 797.28 608 787.04 641.76v1.6A85.12 85.12 0 0 1 704 709.12H182.88v-396.16h118.88c128.96 0 150.08-176 152-196.96A84.32 84.32 0 0 1 496 42.88zM308.16 370.4a5.12 5.12 0 0 0-5.12-5.12H240a5.12 5.12 0 0 0-5.12 5.12V651.84a5.12 5.12 0 0 0 5.12 5.12h62.56a5.12 5.12 0 0 0 5.12-5.12z m55.36-16a5.12 5.12 0 0 0-3.36 4.8V651.84a5.12 5.12 0 0 0 5.12 5.12h337.6A33.44 33.44 0 0 0 736 629.92l1.44-4.96c28.48-94.56 50.88-176 62.88-228.64a60.64 60.64 0 0 0-3.68-48l-0.96-1.28a48 48 0 0 0-32-13.6H548.48a26.08 26.08 0 0 1-16-46.88c37.92-29.28 39.84-132.8 37.44-165.92a34.08 34.08 0 0 0-32-37.28 33.28 33.28 0 0 0-32 34.24c-5.44 70.24-41.92 198.24-142.4 236.32z"  horiz-adv-x="1024" />

    
    <glyph glyph-name="arrow-left" unicode="&#58884;" d="M399.399 383.754l292.155 292.16c12.278 12.27 12.278 32.186 0 44.457-12.27 12.278-32.186 12.278-44.457 0l-314.387-314.389c-12.281-12.27-12.281-32.186 0-44.457l314.388-314.388c6.137-6.14 14.183-9.211 22.228-9.211s16.092 3.071 22.228 9.211c12.281 12.27 12.281 32.186 0 44.457l-292.157 292.161z"  horiz-adv-x="1024" />

    
    <glyph glyph-name="shuru" unicode="&#59136;" d="M512 877.568C239.104 877.568 18.432 656.896 18.432 384c0-272.896 221.184-493.568 493.568-493.568 272.896 0 493.568 221.184 493.568 493.568 0 272.896-220.672 493.568-493.568 493.568z m20.48-718.848h-50.688v50.688h50.688v-50.688z m102.912 0h-50.688v50.688h50.688v-50.688z m-102.4 185.856l-45.568-46.08c-15.36-14.848-28.672-28.16-40.96-40.448-12.288-12.288-22.016-22.528-30.208-30.208-8.192-8.192-12.8-12.288-14.336-13.824-3.584-3.584-8.192-7.168-12.8-10.752-5.12-3.584-10.24-6.656-15.36-9.216s-12.8-5.632-23.04-9.728c-10.24-3.584-20.992-7.68-32.256-11.264-11.264-3.584-22.016-6.656-31.744-9.216-10.24-2.56-17.408-4.096-22.528-5.12-10.24-1.024-16.896 0.512-20.48 4.608-3.584 4.096-4.096 11.264-3.072 20.992 1.024 5.12 2.56 12.8 5.632 23.04 3.072 10.24 5.632 20.48 9.216 31.232 3.072 10.752 6.144 20.48 9.216 29.696 3.072 9.216 5.632 15.36 7.168 18.944 2.048 5.12 4.608 10.24 7.68 14.336 3.072 4.096 7.168 9.216 12.288 14.336 2.048 2.048 7.68 7.68 15.872 16.384 8.192 8.704 18.944 18.944 31.232 31.744l41.472 41.472 46.08 46.08L548.864 573.44l105.984-106.496-121.856-122.368z m205.824-185.856h-50.688v50.688h50.688v-50.688z m-2.048 393.728c-2.048-5.12-5.12-9.728-9.216-14.336-4.608-4.608-8.704-8.704-12.288-11.776l-9.216-9.216c-3.072-3.072-5.632-5.632-8.704-8.192l-105.984 105.984c4.608 4.096 9.728 9.216 16.384 14.848s11.264 10.24 15.36 13.824c5.12 4.096 10.752 7.168 16.384 8.704 5.632 1.536 11.264 2.56 16.896 2.048 5.632 0 10.752-1.024 15.872-2.56s9.728-3.072 13.312-5.12c8.192-4.096 16.896-11.264 26.624-22.016 9.728-10.24 17.408-21.504 22.528-32.768 1.536-3.584 2.56-7.168 3.584-11.776 1.024-4.608 1.536-9.216 1.536-14.336-0.512-3.584-1.024-8.704-3.072-13.312z"  horiz-adv-x="1024" />

    
    </font>
</defs>
</svg>
